<?xml version="1.0" standalone="no"?>
<!DOCTYPE svg PUBLIC "-//W3C//DTD SVG 20010904//EN"
 "http://www.w3.org/TR/2001/REC-SVG-20010904/DTD/svg10.dtd">
<svg version="1.0" xmlns="http://www.w3.org/2000/svg"
 width="622.000000pt" height="622.000000pt" viewBox="0 0 622.000000 622.000000"
 preserveAspectRatio="xMidYMid meet">
<metadata>
Created by potrace 1.11, written by Peter Selinger 2001-2013
</metadata>
<g transform="translate(0.000000,622.000000) scale(0.100000,-0.100000)"
fill="#000000" stroke="none">
<path d="M2800 5460 c0 -5 5 -10 11 -10 5 0 7 5 4 10 -3 6 -8 10 -11 10 -2 0
-4 -4 -4 -10z"/>
<path d="M6145 5430 c4 -6 11 -8 16 -5 14 9 11 15 -7 15 -8 0 -12 -5 -9 -10z"/>
<path d="M3236 4925 c4 -8 10 -15 15 -15 4 0 6 7 3 15 -4 8 -10 15 -15 15 -4
0 -6 -7 -3 -15z"/>
<path d="M2080 4664 c0 -8 5 -12 10 -9 6 3 10 10 10 16 0 5 -4 9 -10 9 -5 0
-10 -7 -10 -16z"/>
<path d="M2135 4660 c3 -5 8 -10 11 -10 2 0 4 5 4 10 0 6 -5 10 -11 10 -5 0
-7 -4 -4 -10z"/>
<path d="M3185 4600 c-3 -5 -1 -10 4 -10 6 0 11 5 11 10 0 6 -2 10 -4 10 -3 0
-8 -4 -11 -10z"/>
<path d="M3274 4576 c-7 -19 3 -36 22 -36 10 0 14 8 12 22 -4 26 -26 36 -34
14z"/>
<path d="M4310 4571 c0 -6 4 -13 10 -16 6 -3 7 1 4 9 -7 18 -14 21 -14 7z"/>
<path d="M4400 4531 c0 -5 7 -12 16 -15 14 -5 15 -4 4 9 -14 17 -20 19 -20 6z"/>
<path d="M3160 4520 c0 -5 4 -10 9 -10 6 0 13 5 16 10 3 6 -1 10 -9 10 -9 0
-16 -4 -16 -10z"/>
<path d="M2367 4489 c7 -7 15 -10 18 -7 3 3 -2 9 -12 12 -14 6 -15 5 -6 -5z"/>
<path d="M3170 4496 c0 -2 7 -7 16 -10 8 -3 12 -2 9 4 -6 10 -25 14 -25 6z"/>
<path d="M3473 4485 c0 -8 4 -15 9 -15 4 0 8 4 8 9 0 6 -4 12 -8 15 -5 3 -9
-1 -9 -9z"/>
<path d="M4420 4489 c0 -5 5 -7 10 -4 6 3 10 8 10 11 0 2 -4 4 -10 4 -5 0 -10
-5 -10 -11z"/>
<path d="M3080 4460 c0 -5 4 -10 9 -10 6 0 13 5 16 10 3 6 -1 10 -9 10 -9 0
-16 -4 -16 -10z"/>
<path d="M3167 4423 c-12 -12 -7 -23 11 -23 13 0 14 2 3 9 -11 7 -11 9 0 14 8
3 9 6 3 6 -6 1 -14 -2 -17 -6z"/>
<path d="M3104 4401 c4 -5 0 -11 -6 -14 -7 -2 -10 -8 -6 -12 4 -4 14 -1 22 8
15 14 12 27 -6 27 -5 0 -7 -4 -4 -9z"/>
<path d="M3205 4390 c3 -5 8 -10 11 -10 2 0 4 5 4 10 0 6 -5 10 -11 10 -5 0
-7 -4 -4 -10z"/>
<path d="M3460 4389 c0 -5 5 -9 11 -9 5 0 7 -4 4 -10 -3 -5 -1 -10 5 -10 6 0
8 -6 5 -12 -4 -7 3 -2 14 12 12 14 19 18 16 9 -8 -22 16 -41 35 -28 12 8 11 9
-4 7 -10 -2 -21 3 -24 11 -2 8 0 11 6 7 5 -3 13 1 16 10 9 24 7 31 -4 14 -6
-9 -13 -11 -17 -5 -10 13 -63 17 -63 4z"/>
<path d="M3180 4370 c0 -5 5 -10 10 -10 6 0 10 5 10 10 0 6 -4 10 -10 10 -5 0
-10 -4 -10 -10z"/>
<path d="M3920 4370 c0 -5 5 -10 10 -10 6 0 10 5 10 10 0 6 -4 10 -10 10 -5 0
-10 -4 -10 -10z"/>
<path d="M2483 4345 c-18 -20 -16 -25 6 -25 14 0 19 6 18 20 -2 23 -7 25 -24
5z"/>
<path d="M3220 4348 c0 -9 6 -19 13 -21 9 -4 9 -6 -1 -6 -7 -1 -10 -5 -7 -11
3 -5 -2 -10 -12 -10 -15 0 -16 -2 -3 -10 8 -5 24 -9 35 -9 16 1 17 2 3 6 -10
2 -15 10 -11 19 9 23 23 16 35 -18 10 -28 12 -29 18 -12 7 20 -9 56 -21 48 -4
-2 -17 6 -28 18 -17 17 -21 18 -21 6z"/>
<path d="M3377 4349 c-9 -5 -21 -8 -26 -4 -5 3 -12 1 -16 -5 -9 -15 29 -12 51
5 22 17 17 19 -9 4z"/>
<path d="M3150 4333 c0 -8 4 -12 8 -9 5 3 9 -1 9 -10 0 -10 -7 -12 -21 -8 -18
6 -19 5 -9 -8 7 -8 9 -18 5 -22 -4 -4 -2 -7 3 -6 18 4 35 0 34 -7 -4 -22 3
-30 25 -30 l25 0 -28 23 c-22 18 -26 29 -23 57 3 26 0 34 -12 34 -9 0 -16 -7
-16 -14z"/>
<path d="M3411 4334 c0 -11 3 -14 6 -6 3 7 2 16 -1 19 -3 4 -6 -2 -5 -13z"/>
<path d="M3730 4334 c0 -8 5 -12 10 -9 6 3 10 10 10 16 0 5 -4 9 -10 9 -5 0
-10 -7 -10 -16z"/>
<path d="M2597 4313 c-4 -3 -7 -11 -7 -17 0 -6 5 -5 12 2 6 6 9 14 7 17 -3 3
-9 2 -12 -2z"/>
<path d="M3582 4308 c2 -6 10 -14 16 -16 7 -2 10 2 6 12 -7 18 -28 22 -22 4z"/>
<path d="M3545 4300 c3 -5 10 -10 16 -10 5 0 9 5 9 10 0 6 -7 10 -16 10 -8 0
-12 -4 -9 -10z"/>
<path d="M3306 4292 c-2 -4 -1 -14 5 -22 7 -12 9 -10 9 8 0 23 -5 28 -14 14z"/>
<path d="M3366 4283 c-6 -14 -5 -15 5 -6 7 7 10 15 7 18 -3 3 -9 -2 -12 -12z"/>
<path d="M3450 4296 c0 -2 7 -7 16 -10 8 -3 12 -2 9 4 -6 10 -25 14 -25 6z"/>
<path d="M3091 4277 c0 -10 -5 -15 -11 -12 -5 3 -10 1 -10 -5 0 -7 6 -10 13
-7 6 2 19 -2 28 -9 13 -12 16 -12 16 1 0 8 -6 15 -13 15 -7 0 -15 8 -17 18 -4
16 -5 16 -6 -1z"/>
<path d="M3207 4264 c6 -15 23 -19 23 -5 0 5 -7 11 -14 14 -10 4 -13 1 -9 -9z"/>
<path d="M3385 4270 c-3 -5 -1 -10 4 -10 6 0 11 5 11 10 0 6 -2 10 -4 10 -3 0
-8 -4 -11 -10z"/>
<path d="M3420 4273 c5 -2 10 -13 10 -24 0 -11 7 -22 16 -26 8 -3 13 -11 10
-18 -3 -8 1 -15 7 -18 8 -3 12 8 13 30 1 23 -2 31 -9 24 -7 -7 -14 -3 -21 11
-6 12 -17 23 -24 24 -7 1 -8 0 -2 -3z"/>
<path d="M3655 4269 c-10 -15 3 -25 16 -12 7 7 7 13 1 17 -6 3 -14 1 -17 -5z"/>
<path d="M3550 4260 c0 -5 4 -10 9 -10 6 0 13 5 16 10 3 6 -1 10 -9 10 -9 0
-16 -4 -16 -10z"/>
<path d="M3615 4260 c3 -5 11 -10 16 -10 6 0 7 5 4 10 -3 6 -11 10 -16 10 -6
0 -7 -4 -4 -10z"/>
<path d="M3690 4260 c0 -5 5 -10 11 -10 5 0 7 5 4 10 -3 6 -8 10 -11 10 -2 0
-4 -4 -4 -10z"/>
<path d="M4050 4259 c0 -5 5 -7 10 -4 6 3 10 8 10 11 0 2 -4 4 -10 4 -5 0 -10
-5 -10 -11z"/>
<path d="M2586 4252 c-3 -6 -1 -14 5 -17 14 -9 20 -2 10 14 -6 8 -11 9 -15 3z"/>
<path d="M2630 4239 c0 -5 5 -7 10 -4 6 3 10 8 10 11 0 2 -4 4 -10 4 -5 0 -10
-5 -10 -11z"/>
<path d="M3140 4238 c0 -9 5 -20 10 -23 13 -8 13 5 0 25 -8 13 -10 13 -10 -2z"/>
<path d="M3265 4241 c-3 -2 -5 -11 -4 -20 0 -12 3 -11 9 4 5 11 9 15 9 8 1
-14 31 -6 31 7 0 9 -37 9 -45 1z"/>
<path d="M3496 4241 c-4 -5 -2 -12 3 -15 5 -4 12 -2 15 3 4 5 2 12 -3 15 -5 4
-12 2 -15 -3z"/>
<path d="M3715 4240 c-3 -5 -1 -10 4 -10 6 0 11 5 11 10 0 6 -2 10 -4 10 -3 0
-8 -4 -11 -10z"/>
<path d="M4085 4242 c-19 -14 -15 -38 6 -39 15 -1 18 1 10 11 -7 9 -7 16 1 24
13 13 -1 16 -17 4z"/>
<path d="M3327 4234 c-11 -11 3 -24 26 -23 15 0 17 2 7 6 -8 3 -18 10 -21 15
-3 4 -8 5 -12 2z"/>
<path d="M3386 4227 c3 -10 9 -15 12 -12 3 3 0 11 -7 18 -10 9 -11 8 -5 -6z"/>
<path d="M2556 4215 c-9 -26 -7 -32 5 -12 6 10 9 21 6 23 -2 3 -7 -2 -11 -11z"/>
<path d="M3570 4221 c0 -6 4 -13 10 -16 6 -3 7 1 4 9 -7 18 -14 21 -14 7z"/>
<path d="M4145 4220 c-8 -13 5 -13 25 0 13 8 13 10 -2 10 -9 0 -20 -4 -23 -10z"/>
<path d="M2025 4210 c-3 -5 -2 -10 4 -10 5 0 13 5 16 10 3 6 2 10 -4 10 -5 0
-13 -4 -16 -10z"/>
<path d="M2686 4205 c-3 -8 -1 -15 4 -15 6 0 10 7 10 15 0 8 -2 15 -4 15 -2 0
-6 -7 -10 -15z"/>
<path d="M3115 4210 c-3 -5 -1 -10 4 -10 6 0 11 5 11 10 0 6 -2 10 -4 10 -3 0
-8 -4 -11 -10z"/>
<path d="M3201 4214 c-1 -6 5 -17 12 -23 10 -8 14 -7 14 4 0 8 -4 12 -8 9 -4
-2 -10 2 -12 8 -4 8 -6 9 -6 2z"/>
<path d="M3722 4208 c2 -7 -3 -12 -9 -10 -7 1 -13 -5 -13 -14 0 -8 4 -13 9
-10 5 3 20 -4 35 -15 30 -23 36 -69 10 -69 -13 0 -14 3 -5 14 12 14 5 46 -10
46 -13 0 -11 -17 4 -24 10 -5 10 -7 0 -12 -7 -3 -13 -12 -13 -20 0 -13 7 -16
27 -13 3 0 10 -6 15 -15 5 -9 14 -16 20 -16 7 0 7 4 -1 14 -9 11 -8 15 4 20
13 4 13 10 4 28 -25 48 -26 53 -10 65 15 11 14 12 -1 13 -11 0 -15 5 -12 15 4
8 1 15 -5 15 -6 0 -11 -4 -11 -9 0 -5 -7 -12 -16 -15 -8 -3 -12 -2 -9 3 3 5 1
13 -5 16 -6 4 -9 1 -8 -7z"/>
<path d="M2596 4203 c-3 -4 -6 -11 -6 -16 0 -6 3 -7 6 -4 4 3 15 2 25 -4 15
-7 17 -6 13 5 -6 16 -29 28 -38 19z"/>
<path d="M3301 4194 c0 -11 3 -14 6 -6 3 7 2 16 -1 19 -3 4 -6 -2 -5 -13z"/>
<path d="M3885 4200 c-3 -5 -1 -10 4 -10 6 0 11 5 11 10 0 6 -2 10 -4 10 -3 0
-8 -4 -11 -10z"/>
<path d="M4000 4196 c0 -9 -9 -16 -21 -16 -11 0 -17 -4 -14 -10 3 -5 1 -10 -5
-10 -7 0 -10 -7 -6 -15 3 -9 -3 -19 -14 -25 -11 -6 -20 -20 -20 -30 0 -11 -5
-20 -12 -20 -8 0 -9 -3 -2 -10 6 -6 19 -8 28 -4 14 5 15 9 4 15 -9 6 -8 9 7 9
19 0 60 -20 41 -20 -4 0 2 -8 14 -18 13 -10 20 -25 17 -33 -4 -10 -8 -8 -12 9
-8 25 -9 26 -37 11 -16 -8 -22 -8 -28 2 -6 9 -14 2 -29 -22 -25 -41 -26 -49
-4 -49 9 0 13 -3 10 -7 -4 -3 3 -17 15 -30 12 -13 16 -23 9 -23 -8 0 -9 -5 -1
-19 13 -25 13 -41 0 -21 -8 13 -10 12 -10 -2 0 -10 -4 -18 -9 -18 -16 0 -24
21 -12 33 6 6 11 18 10 27 0 9 -4 6 -10 -8 -5 -13 -13 -20 -19 -17 -5 3 -10
-1 -10 -9 0 -9 5 -16 11 -16 8 0 10 -12 6 -36 -5 -32 -4 -36 13 -31 14 4 17 1
13 -12 -6 -14 -4 -14 14 2 11 9 22 14 25 11 4 -3 9 4 13 15 8 25 30 28 39 5 9
-24 7 -36 -6 -28 -8 5 -9 2 -5 -9 4 -10 1 -17 -6 -18 -7 0 -1 -5 12 -10 13 -5
29 -8 35 -5 6 2 3 5 -8 5 -14 1 -17 6 -12 24 15 50 14 57 -5 67 -22 12 -24 26
-6 44 18 19 67 18 60 -1 -3 -8 9 0 26 18 27 27 34 29 48 18 10 -8 14 -9 10 -2
-5 7 1 13 15 15 13 2 23 10 23 18 0 8 -5 14 -10 13 -6 -1 -12 10 -13 24 -1 19
2 24 13 19 9 -3 20 3 27 14 7 11 18 20 25 20 20 0 15 17 -9 34 -12 9 -17 16
-10 16 7 0 10 4 7 10 -3 5 0 7 9 4 26 -10 24 30 -2 44 -30 15 -27 15 -47 -4
-14 -15 -14 -17 2 -31 17 -13 17 -14 -2 -11 -24 4 -30 48 -9 65 13 9 12 13 -8
27 -21 16 -24 15 -38 -2 -13 -16 -18 -17 -28 -5 -17 18 -33 17 -26 -2 4 -8 10
-12 16 -9 5 3 8 0 7 -7 -2 -8 3 -25 10 -37 7 -13 9 -27 5 -30 -4 -4 -9 -1 -11
6 -3 7 -12 19 -20 28 -13 13 -17 13 -24 2 -5 -7 -9 -9 -9 -4 0 6 -6 1 -14 -9
-17 -24 -3 -57 22 -54 9 1 26 1 36 0 18 -1 18 -2 3 -19 -10 -10 -14 -22 -10
-25 14 -14 -13 -6 -44 13 -32 19 -39 39 -34 93 1 9 -2 17 -7 17 -6 0 -13 7
-16 16 -4 11 -1 14 11 12 9 -2 20 -14 23 -26 l5 -24 23 25 c17 18 19 24 7 25
-8 1 -21 3 -29 4 -8 1 -12 7 -9 14 2 6 0 15 -6 19 -6 3 -11 -1 -11 -9z m170
-28 c0 -4 -4 -8 -10 -8 -5 0 -10 -9 -10 -20 0 -21 -15 -27 -25 -10 -11 18 5
49 25 47 11 -1 20 -5 20 -9z m-113 -74 c-3 -3 -12 -4 -19 -1 -8 3 -5 6 6 6 11
1 17 -2 13 -5z m100 -75 c1 -12 -3 -16 -13 -12 -18 7 -18 -4 1 -23 8 -9 15
-21 14 -27 0 -9 -2 -8 -6 1 -2 6 -13 12 -24 12 -14 0 -19 7 -19 25 0 14 6 25
13 25 8 0 7 4 -3 10 -12 8 -9 9 11 8 16 -1 26 -8 26 -19z m-167 -18 c0 -5 10
-11 22 -13 20 -3 21 -4 5 -19 -9 -9 -13 -19 -10 -23 6 -6 -13 -9 -20 -3 -2 1
-12 -4 -21 -12 -12 -10 -20 -11 -28 -3 -14 14 -19 72 -6 72 5 0 7 -4 3 -9 -11
-19 12 -19 25 0 15 20 30 25 30 10z m80 -46 c-7 -8 -17 -15 -22 -15 -6 0 -5 7
2 15 7 8 17 15 22 15 6 0 5 -7 -2 -15z m67 -27 c-18 -11 -39 -10 -32 2 4 6 11
8 16 5 5 -4 9 2 9 12 0 15 2 16 10 3 6 -9 5 -17 -3 -22z m-207 -110 c0 -8 3
-9 8 -3 4 6 14 11 22 13 10 1 9 -3 -5 -13 -10 -8 -24 -14 -29 -12 -14 5 -20
27 -7 27 6 0 11 -6 11 -12z"/>
<path d="M3975 3980 c-3 -5 -1 -10 4 -10 6 0 11 5 11 10 0 6 -2 10 -4 10 -3 0
-8 -4 -11 -10z"/>
<path d="M3177 4183 c4 -11 3 -14 -5 -9 -7 4 -12 2 -12 -4 0 -7 6 -10 13 -8
15 6 22 38 8 38 -6 0 -7 -7 -4 -17z"/>
<path d="M3255 4190 c-3 -5 -1 -10 4 -10 6 0 11 -5 11 -11 0 -7 -10 -9 -26 -5
-21 6 -25 4 -21 -7 3 -8 1 -19 -4 -24 -6 -6 -4 -10 5 -10 9 0 13 8 10 21 -3
21 -3 21 11 2 15 -20 15 -20 30 0 17 23 19 34 4 34 -5 0 -7 5 -4 10 3 6 2 10
-4 10 -5 0 -13 -4 -16 -10z"/>
<path d="M3835 4190 c-3 -5 3 -10 15 -10 12 0 18 5 15 10 -3 6 -10 10 -15 10
-5 0 -12 -4 -15 -10z"/>
<path d="M3496 4181 c-3 -5 1 -11 9 -14 9 -4 12 -1 8 9 -6 16 -10 17 -17 5z"/>
<path d="M4286 4182 c-3 -6 -1 -14 5 -17 14 -9 20 -2 10 14 -6 8 -11 9 -15 3z"/>
<path d="M3581 4170 c-1 -20 27 -55 36 -46 5 4 1 13 -8 19 -9 7 -18 19 -22 27
-5 13 -5 13 -6 0z"/>
<path d="M3300 4160 c0 -5 5 -10 10 -10 6 0 10 5 10 10 0 6 -4 10 -10 10 -5 0
-10 -4 -10 -10z"/>
<path d="M4266 4155 c4 -8 11 -15 16 -15 6 0 5 6 -2 15 -7 8 -14 15 -16 15 -2
0 -1 -7 2 -15z"/>
<path d="M2610 4150 c0 -5 7 -10 16 -10 8 0 12 5 9 10 -3 6 -10 10 -16 10 -5
0 -9 -4 -9 -10z"/>
<path d="M3155 4140 c3 -5 8 -10 11 -10 2 0 4 5 4 10 0 6 -5 10 -11 10 -5 0
-7 -4 -4 -10z"/>
<path d="M3460 4146 c0 -2 7 -7 16 -10 8 -3 12 -2 9 4 -6 10 -25 14 -25 6z"/>
<path d="M3805 4139 c-4 -6 -4 -13 0 -17 4 -4 10 -2 12 5 2 7 11 9 20 6 11 -4
14 -2 9 5 -9 15 -33 16 -41 1z"/>
<path d="M2647 4126 c-4 -10 -1 -13 8 -9 8 3 12 9 9 14 -7 12 -11 11 -17 -5z"/>
<path d="M3360 4130 c0 -5 5 -10 10 -10 6 0 10 5 10 10 0 6 -4 10 -10 10 -5 0
-10 -4 -10 -10z"/>
<path d="M4305 4130 c3 -5 8 -10 11 -10 2 0 4 5 4 10 0 6 -5 10 -11 10 -5 0
-7 -4 -4 -10z"/>
<path d="M3624 4119 c-13 -22 -12 -48 2 -42 17 6 24 27 14 42 -6 11 -9 10 -16
0z"/>
<path d="M3660 4120 c0 -5 4 -10 9 -10 6 0 13 5 16 10 3 6 -1 10 -9 10 -9 0
-16 -4 -16 -10z"/>
<path d="M2690 4111 c0 -6 4 -13 10 -16 6 -3 7 1 4 9 -7 18 -14 21 -14 7z"/>
<path d="M3100 4095 c0 -8 2 -15 4 -15 2 0 6 7 10 15 3 8 1 15 -4 15 -6 0 -10
-7 -10 -15z"/>
<path d="M3134 4094 c3 -23 13 -26 18 -6 3 11 0 19 -7 19 -7 0 -12 -6 -11 -13z"/>
<path d="M3697 4096 c-4 -10 -1 -13 9 -9 7 3 14 9 14 14 0 14 -17 10 -23 -5z"/>
<path d="M4257 4096 c-7 -19 9 -31 19 -14 5 8 10 4 15 -10 9 -24 29 -30 28 -9
-1 18 -17 54 -18 40 -1 -14 -22 -13 -32 0 -3 5 -9 2 -12 -7z"/>
<path d="M2657 4085 c-6 -15 10 -32 20 -21 4 3 1 6 -5 6 -6 0 -9 7 -6 15 4 8
4 15 1 15 -3 0 -7 -7 -10 -15z"/>
<path d="M3489 4078 c-6 -13 -8 -20 -4 -16 4 4 13 0 20 -9 10 -13 11 -11 7 15
-5 38 -8 39 -23 10z"/>
<path d="M3570 4086 c0 -8 9 -20 20 -26 17 -9 19 -8 11 12 -9 26 -31 36 -31
14z"/>
<path d="M2722 4078 c-15 -15 -15 -35 -1 -44 7 -4 9 0 5 14 -5 14 -1 24 11 31
10 6 13 11 8 11 -6 0 -16 -5 -23 -12z"/>
<path d="M3170 4075 c0 -8 4 -15 10 -15 5 0 7 7 4 15 -4 8 -8 15 -10 15 -2 0
-4 -7 -4 -15z"/>
<path d="M3336 4082 c-3 -5 1 -9 9 -9 8 0 12 4 9 9 -3 4 -7 8 -9 8 -2 0 -6 -4
-9 -8z"/>
<path d="M3533 4070 c6 -10 14 -17 18 -14 4 2 10 0 13 -5 4 -5 2 -12 -3 -16
-6 -3 -7 -13 -4 -22 5 -14 8 -13 15 6 9 25 -7 57 -33 64 -15 4 -16 2 -6 -13z"/>
<path d="M3825 4080 c3 -5 10 -10 16 -10 5 0 9 5 9 10 0 6 -7 10 -16 10 -8 0
-12 -4 -9 -10z"/>
<path d="M2870 4070 c-9 -6 -10 -10 -3 -10 6 0 15 5 18 10 8 12 4 12 -15 0z"/>
<path d="M3435 4070 c-2 -3 5 -7 16 -7 10 -1 19 2 19 6 0 9 -29 10 -35 1z"/>
<path d="M4370 4060 c0 -5 5 -10 11 -10 5 0 7 5 4 10 -3 6 -8 10 -11 10 -2 0
-4 -4 -4 -10z"/>
<path d="M3305 4050 c3 -5 12 -7 20 -3 21 7 19 13 -6 13 -11 0 -18 -4 -14 -10z"/>
<path d="M3375 4050 c3 -5 11 -10 16 -10 6 0 7 5 4 10 -3 6 -11 10 -16 10 -6
0 -7 -4 -4 -10z"/>
<path d="M3641 4033 c-9 -16 -12 -16 -21 -3 -5 8 -10 10 -10 4 0 -6 7 -17 15
-24 10 -9 15 -9 15 -1 0 6 7 11 15 11 17 0 20 16 6 25 -6 3 -14 -3 -20 -12z"/>
<path d="M3878 4043 c0 -5 -2 -12 -3 -18 -1 -5 -6 -18 -10 -29 -5 -11 -3 -26
4 -38 6 -10 9 -23 6 -28 -4 -6 -1 -10 4 -10 13 0 14 11 2 43 -8 20 -6 27 5 31
8 3 13 10 9 15 -3 5 -1 12 5 16 6 4 8 11 5 16 -7 11 -24 12 -27 2z"/>
<path d="M4282 4034 c1 -9 9 -19 16 -22 9 -3 13 2 10 14 -1 9 -9 19 -16 22 -9
3 -13 -2 -10 -14z"/>
<path d="M3195 4030 c3 -5 8 -10 11 -10 2 0 4 5 4 10 0 6 -5 10 -11 10 -5 0
-7 -4 -4 -10z"/>
<path d="M3348 3999 c10 -27 18 -36 24 -27 13 21 9 32 -16 50 l-24 18 16 -41z"/>
<path d="M3415 4030 c3 -5 8 -10 11 -10 2 0 4 5 4 10 0 6 -5 10 -11 10 -5 0
-7 -4 -4 -10z"/>
<path d="M3832 4035 c4 -4 0 -13 -9 -20 -11 -8 -12 -14 -5 -19 6 -3 16 2 22
13 7 15 7 22 -2 27 -7 4 -10 4 -6 -1z"/>
<path d="M3436 4015 c-3 -9 0 -15 9 -15 9 0 12 6 9 15 -4 8 -7 15 -9 15 -2 0
-5 -7 -9 -15z"/>
<path d="M3510 4020 c0 -5 5 -10 11 -10 5 0 7 5 4 10 -3 6 -8 10 -11 10 -2 0
-4 -4 -4 -10z"/>
<path d="M3706 4011 c-3 -5 1 -11 9 -15 9 -3 15 0 15 9 0 16 -16 20 -24 6z"/>
<path d="M2085 3989 c-4 -6 -5 -12 -2 -15 2 -3 7 2 10 11 7 17 1 20 -8 4z"/>
<path d="M3493 3983 c-3 -10 -8 -22 -11 -27 -3 -5 1 -7 9 -4 8 3 15 14 15 26
2 26 -4 28 -13 5z"/>
<path d="M3526 3992 c-8 -13 40 -55 53 -47 6 3 11 12 11 18 0 8 -3 8 -9 -1 -6
-11 -13 -8 -29 12 -11 15 -23 23 -26 18z"/>
<path d="M3656 3991 c-4 -5 -2 -12 3 -15 5 -4 12 -2 15 3 4 5 2 12 -3 15 -5 4
-12 2 -15 -3z"/>
<path d="M4465 3986 c-5 -12 -3 -21 6 -27 19 -12 29 -11 29 1 0 6 -4 10 -9 10
-5 0 -11 8 -14 18 -4 16 -4 16 -12 -2z"/>
<path d="M3000 3981 c0 -5 7 -11 14 -14 10 -4 13 -1 9 9 -6 15 -23 19 -23 5z"/>
<path d="M3455 3979 c-4 -6 -4 -13 -1 -16 3 -4 6 -1 6 6 0 7 5 9 12 5 7 -4 8
-3 4 4 -9 15 -13 15 -21 1z"/>
<path d="M3588 3983 c7 -3 16 -2 19 1 4 3 -2 6 -13 5 -11 0 -14 -3 -6 -6z"/>
<path d="M4815 3980 c3 -5 8 -10 11 -10 2 0 4 5 4 10 0 6 -5 10 -11 10 -5 0
-7 -4 -4 -10z"/>
<path d="M2766 3965 c-9 -9 -16 -19 -16 -22 0 -4 3 -3 7 0 3 4 13 1 22 -6 14
-10 14 -10 3 5 -10 13 -10 17 0 21 7 2 10 7 7 11 -4 4 -14 0 -23 -9z"/>
<path d="M4188 3973 c7 -3 16 -2 19 1 4 3 -2 6 -13 5 -11 0 -14 -3 -6 -6z"/>
<path d="M3127 3946 c-4 -10 -1 -13 9 -9 7 3 14 9 14 14 0 14 -17 10 -23 -5z"/>
<path d="M3645 3950 c4 -6 11 -8 16 -5 14 9 11 15 -7 15 -8 0 -12 -5 -9 -10z"/>
<path d="M3760 3950 c0 -5 5 -10 11 -10 5 0 7 5 4 10 -3 6 -8 10 -11 10 -2 0
-4 -4 -4 -10z"/>
<path d="M3820 3953 c-28 -11 -51 -53 -30 -53 6 0 10 7 10 15 0 17 20 20 38 5
6 -6 10 -7 7 -4 -3 4 0 13 7 21 9 11 7 12 -7 7 -13 -5 -16 -4 -11 4 8 13 8 13
-14 5z"/>
<path d="M2210 3940 c0 -5 5 -10 10 -10 6 0 10 5 10 10 0 6 -4 10 -10 10 -5 0
-10 -4 -10 -10z"/>
<path d="M2715 3940 c3 -5 8 -10 11 -10 2 0 4 5 4 10 0 6 -5 10 -11 10 -5 0
-7 -4 -4 -10z"/>
<path d="M3403 3933 c0 -8 6 -12 12 -9 7 2 18 -1 24 -7 8 -8 11 -8 11 1 0 7
-5 12 -11 12 -5 0 -8 4 -4 9 3 6 -3 9 -13 8 -10 0 -19 -7 -19 -14z"/>
<path d="M4240 3939 c0 -5 -4 -7 -10 -4 -14 9 -12 -1 3 -13 10 -8 13 -6 14 9
1 10 0 19 -3 19 -2 0 -4 -5 -4 -11z"/>
<path d="M3676 3928 c3 -4 9 -8 15 -8 5 0 9 4 9 8 0 5 -7 9 -15 9 -8 0 -12 -4
-9 -9z"/>
<path d="M4700 3930 c0 -5 5 -10 11 -10 5 0 7 5 4 10 -3 6 -8 10 -11 10 -2 0
-4 -4 -4 -10z"/>
<path d="M3496 3913 c-4 -9 1 -17 14 -20 24 -6 26 -19 5 -27 -9 -3 -15 0 -15
9 0 8 -6 15 -13 15 -21 0 -28 -12 -15 -27 10 -12 7 -13 -15 -8 -17 5 -27 3
-27 -4 0 -6 -1 -14 -2 -18 -2 -3 8 -8 21 -10 14 -2 27 -6 30 -10 3 -3 -4 -3
-16 0 -18 4 -23 1 -23 -14 0 -10 -9 -23 -19 -29 -25 -13 -34 -13 -26 0 3 6 1
10 -5 10 -20 0 -60 -49 -60 -73 0 -44 -38 -56 -52 -16 -4 9 -18 16 -36 17 -17
0 -39 5 -49 10 -26 14 -47 4 -32 -14 23 -28 -24 -2 -54 29 -23 24 -30 27 -42
17 -9 -7 -13 -15 -10 -19 3 -3 9 0 13 6 5 8 13 9 22 3 10 -6 11 -10 3 -10 -7
0 -10 -6 -7 -14 3 -7 -2 -16 -10 -19 -9 -4 -13 -12 -10 -20 3 -8 -3 -20 -13
-28 -16 -13 -17 -12 -4 4 12 15 11 17 -3 17 -9 0 -16 -7 -16 -16 0 -8 -4 -13
-8 -10 -13 8 -53 -24 -46 -36 14 -21 11 -80 -3 -85 -8 -3 -12 -12 -9 -19 3 -8
1 -14 -4 -14 -5 0 -10 6 -13 13 -2 6 -3 2 -1 -9 3 -15 -5 -27 -21 -38 -14 -9
-25 -12 -25 -6 0 5 -8 10 -17 10 -14 0 -15 2 -4 9 9 6 10 14 3 27 -5 11 -7 26
-5 34 4 12 3 12 -5 2 -11 -17 -22 -15 -45 6 -17 16 -17 17 -1 29 17 12 16 13
-4 13 -12 0 -22 5 -22 11 0 6 -9 8 -20 4 -11 -4 -20 -2 -20 4 0 6 7 11 15 11
8 0 15 5 15 10 0 19 -32 10 -37 -10 -6 -22 -30 -22 -25 0 2 8 -3 10 -13 7 -9
-4 -15 -1 -15 8 0 8 -6 15 -14 15 -7 0 -20 8 -27 17 -10 11 -10 14 -1 9 20
-12 14 5 -10 25 -11 11 -16 19 -10 19 6 0 10 9 9 21 -1 14 -7 19 -18 16 -12
-3 -16 0 -12 9 3 8 8 14 12 14 4 0 16 7 27 15 17 13 16 14 -13 5 -20 -5 -33
-5 -33 1 0 5 5 9 10 9 6 0 10 5 10 11 0 8 -5 8 -15 -1 -8 -7 -23 -10 -33 -8
-21 6 -44 -15 -32 -28 5 -5 10 -22 12 -39 3 -26 0 -30 -19 -29 -13 1 -20 -3
-17 -7 3 -5 10 -7 15 -4 5 4 9 1 9 -4 0 -6 5 -11 11 -11 5 0 7 5 4 10 -3 6 -2
10 3 10 18 0 22 -30 4 -31 -10 0 -6 -5 11 -11 27 -10 27 -11 12 -34 -8 -13
-13 -24 -9 -24 3 0 -1 -11 -9 -24 -15 -22 -15 -25 1 -32 9 -4 20 -8 24 -8 15
-2 20 -16 10 -29 -12 -14 -7 -27 10 -27 5 0 6 4 3 10 -3 6 1 7 9 4 9 -3 16
-13 16 -21 0 -9 -6 -13 -15 -10 -16 7 -29 -6 -18 -17 15 -15 9 -32 -11 -34
-17 -1 -18 1 -6 8 12 8 10 9 -9 8 -13 -2 -26 2 -28 8 -2 7 6 10 23 6 19 -3 25
-1 20 7 -4 6 -16 11 -27 11 -14 0 -18 4 -13 13 6 9 4 9 -8 -1 -19 -15 -13 -48
10 -57 14 -5 14 -7 2 -15 -11 -7 -4 -9 22 -7 21 1 38 5 38 10 0 4 8 7 17 7 9
0 13 -3 10 -6 -11 -12 13 -43 28 -38 8 4 12 10 9 15 -3 5 2 6 10 3 13 -5 13
-8 1 -20 -7 -8 -18 -14 -23 -14 -5 0 -15 -6 -21 -14 -9 -11 -9 -15 1 -19 11
-4 10 -6 0 -6 -8 -1 -10 -6 -6 -13 5 -8 0 -7 -11 2 -17 14 -18 13 -13 -8 4
-12 2 -20 -3 -16 -5 3 -9 14 -9 24 0 10 -5 22 -12 26 -7 5 -8 3 -3 -6 6 -10 2
-11 -18 -6 -21 5 -25 3 -21 -9 4 -8 16 -15 28 -16 20 0 20 -1 1 -9 -11 -5 -14
-9 -7 -9 6 -1 12 -6 12 -12 0 -5 -5 -7 -10 -4 -6 3 -13 -1 -16 -10 -4 -9 -13
-14 -20 -11 -8 3 -14 -1 -14 -9 0 -23 -1 -29 -11 -47 -7 -14 -6 -16 5 -12 9 3
15 9 14 12 -3 25 5 38 23 38 19 0 19 -1 3 -13 -10 -7 -15 -16 -11 -19 4 -4 -1
-12 -10 -19 -16 -12 -28 -46 -15 -43 17 5 52 -29 52 -49 0 -13 5 -23 11 -23 6
0 9 -9 6 -20 -3 -10 -2 -18 2 -17 3 1 7 -2 8 -7 1 -5 7 -13 15 -17 10 -7 10
-9 1 -9 -7 0 -13 -9 -13 -21 0 -16 -4 -19 -21 -14 -28 9 -44 -14 -21 -31 13
-9 8 -11 -26 -9 -23 1 -42 -2 -42 -7 0 -5 -4 -7 -8 -4 -5 3 -14 -4 -22 -14 -8
-10 -18 -16 -23 -13 -5 3 -6 -4 -2 -18 6 -20 5 -22 -6 -11 -19 18 -29 15 -29
-9 0 -23 -44 -82 -54 -72 -10 10 -37 -19 -32 -34 3 -8 -2 -17 -11 -20 -9 -4
-19 -1 -21 5 -5 17 -29 15 -36 -4 -4 -10 -14 -14 -26 -11 -11 3 -23 1 -26 -4
-3 -5 -1 -9 4 -9 5 0 12 -8 14 -18 4 -13 14 -17 41 -16 42 2 57 10 57 29 0 8
5 17 11 21 8 4 9 -4 5 -27 -5 -29 -4 -30 4 -11 5 13 14 21 19 17 5 -3 12 -1
16 5 3 5 2 10 -3 10 -5 0 -12 9 -15 20 -3 11 -1 20 4 20 5 0 9 -5 9 -11 0 -6
9 -9 20 -6 17 4 19 1 14 -19 -5 -18 -2 -24 9 -24 11 0 15 8 12 30 -2 16 0 32
6 35 5 4 9 0 9 -8 0 -8 7 -18 16 -21 8 -3 12 -2 9 4 -3 6 -2 10 4 10 6 0 8 7
5 15 -8 19 0 19 20 0 14 -14 15 -11 11 28 -3 39 -1 44 15 40 22 -6 36 -53 19
-63 -6 -4 -10 -13 -7 -20 3 -10 7 -9 19 2 12 13 17 13 27 1 10 -10 10 -13 -3
-13 -8 0 -15 -4 -15 -9 0 -12 -33 -9 -43 4 -5 6 -7 3 -4 -7 3 -9 1 -19 -6 -22
-7 -3 -3 -4 9 -1 12 3 27 -1 34 -10 10 -12 8 -16 -11 -24 -21 -8 -22 -10 -7
-16 9 -4 22 -4 28 0 6 3 10 -3 10 -16 0 -12 8 -31 17 -42 17 -18 17 -19 0 -32
-23 -17 -22 -22 9 -28 18 -3 24 -1 20 9 -5 14 2 17 36 17 10 0 16 2 14 6 -2 3
0 15 5 26 5 14 8 16 8 4 1 -11 11 -16 31 -16 23 0 30 4 27 16 -2 9 -9 15 -16
13 -7 -1 -10 2 -6 8 3 6 11 8 16 5 24 -16 48 -13 54 6 5 16 10 18 21 8 7 -6
11 -15 8 -20 -3 -5 0 -9 5 -9 15 0 13 11 -4 34 -14 19 -12 36 6 36 5 0 8 -5 6
-11 -1 -6 4 -14 11 -16 6 -3 10 1 9 9 -2 7 -2 10 0 6 3 -5 13 -8 24 -8 14 0
19 7 19 27 0 25 -1 25 -13 9 -10 -14 -14 -15 -14 -4 0 15 16 32 34 35 6 1 9
-10 7 -29 -3 -21 2 -35 14 -45 16 -13 15 -14 -4 -8 -13 3 -28 -1 -38 -10 -22
-23 -20 -28 6 -14 18 10 20 9 15 -5 -4 -10 -3 -15 3 -11 6 3 10 1 10 -6 0 -15
10 -6 14 13 2 7 7 21 11 31 6 14 10 16 16 6 4 -8 3 -19 -3 -27 -8 -9 -8 -16 2
-25 10 -9 11 -9 6 1 -4 6 -2 12 5 12 7 0 9 8 6 21 -4 14 -2 19 7 16 7 -3 19
-1 27 4 12 8 11 11 -3 22 -12 9 -14 18 -7 30 6 9 15 17 21 17 6 0 5 -7 -3 -17
-10 -11 -10 -14 -1 -9 7 4 12 1 12 -8 0 -9 7 -16 16 -16 9 0 28 -10 43 -23 23
-19 25 -25 14 -36 -7 -7 -22 -13 -33 -14 -11 -1 -20 -6 -20 -12 0 -5 -5 -3
-10 5 -7 11 -10 7 -10 -17 0 -36 22 -63 51 -63 11 0 18 -4 15 -9 -4 -5 16 -7
46 -5 34 3 54 0 59 -8 15 -24 17 -3 3 27 -8 17 -12 23 -10 15 3 -11 -4 -16
-23 -17 -23 -2 -24 -1 -6 7 11 5 14 9 8 9 -7 1 -13 8 -13 16 0 8 -5 15 -12 15
-6 0 -3 7 8 15 17 13 17 14 2 15 -10 0 -18 5 -18 11 0 5 5 7 12 3 8 -5 9 0 5
15 -4 18 -3 20 8 11 8 -6 11 -18 8 -26 -3 -8 0 -14 6 -14 6 0 11 -6 11 -14 0
-8 7 -16 15 -20 8 -3 15 -9 14 -13 -3 -20 2 -34 11 -28 6 3 10 1 10 -4 0 -6 8
-11 18 -11 10 0 23 -5 29 -11 7 -7 12 -6 16 5 4 11 1 13 -11 9 -13 -5 -12 0 6
19 23 26 29 48 12 48 -5 0 -9 -4 -7 -9 3 -12 -17 -15 -21 -3 -5 15 27 42 43
36 8 -4 15 -1 15 7 0 7 -3 9 -7 6 -3 -4 -12 -2 -20 4 -10 9 -13 8 -13 0 0 -7
-5 -9 -12 -4 -7 4 -22 8 -32 8 -11 0 -21 6 -24 14 -3 9 0 11 8 6 10 -6 12 -4
7 8 -3 8 1 21 9 28 10 9 12 14 4 19 -6 4 10 7 37 8 65 0 83 4 77 14 -4 5 -13
7 -21 3 -13 -4 -14 -3 -3 10 10 12 16 13 27 4 7 -7 17 -9 20 -5 4 4 1 11 -7
16 -12 8 -11 10 5 11 11 1 23 1 28 0 4 0 7 3 7 8 0 15 -27 20 -41 8 -11 -10
-11 -9 0 5 7 10 17 15 22 12 5 -3 9 1 9 9 0 16 55 59 64 50 3 -4 6 -15 6 -26
0 -14 5 -17 16 -13 13 5 15 2 11 -14 -3 -11 -1 -20 4 -20 5 0 9 5 9 10 0 17
30 11 37 -7 3 -10 15 -27 26 -37 20 -20 20 -20 14 10 -3 16 -2 36 4 44 7 12 9
10 9 -8 0 -14 4 -20 10 -17 17 11 63 -24 52 -38 -7 -8 -6 -16 2 -23 9 -9 15
-4 25 18 7 16 16 27 19 24 2 -3 -1 -13 -9 -23 -12 -15 -12 -16 4 -10 12 5 28
0 44 -13 27 -21 46 -19 25 2 -20 20 -13 32 7 14 11 -10 25 -15 32 -11 8 6 3
13 -16 23 -38 20 -13 34 29 17 23 -11 30 -19 28 -37 -1 -15 1 -19 6 -10 7 10
12 9 23 -4 8 -9 13 -19 12 -21 -2 -1 -1 -3 2 -3 3 0 5 3 6 8 0 4 5 12 11 19 6
8 6 19 -2 33 -6 12 -9 26 -6 33 3 9 5 9 5 0 1 -7 9 -13 18 -13 15 0 14 3 -4
22 -20 20 -24 20 -40 6 -18 -16 -48 -14 -38 2 3 5 12 7 19 4 7 -3 19 2 26 10
7 9 17 13 24 9 6 -4 5 0 -2 9 -7 9 -22 15 -33 13 -11 -2 -17 0 -14 6 4 5 11 7
16 4 5 -4 9 -1 9 5 0 6 5 8 12 4 7 -4 8 -3 4 4 -4 6 -13 9 -21 5 -21 -7 -19 7
3 24 9 7 13 13 7 12 -23 -3 -27 2 -14 17 12 14 14 12 24 -17 9 -26 17 -34 36
-34 19 0 29 11 48 48 24 46 24 48 6 65 -16 15 -17 15 -6 0 15 -20 -5 -37 -22
-18 -9 10 -9 11 2 5 10 -6 12 -4 6 4 -5 9 -15 5 -36 -15 -16 -15 -29 -23 -29
-16 0 6 15 25 33 41 17 17 26 31 20 31 -7 0 -13 -5 -13 -11 0 -5 -5 -7 -11 -3
-8 4 -8 9 0 17 15 15 14 30 -1 21 -8 -5 -7 0 2 11 9 11 10 16 3 11 -9 -5 -13
0 -13 13 0 25 4 26 25 4 14 -14 18 -14 26 -2 6 10 3 15 -11 17 -11 2 -20 8
-20 14 0 5 7 7 16 4 15 -6 15 -4 0 19 -12 18 -13 25 -4 26 7 0 4 4 -7 9 -11 5
-14 9 -7 9 7 1 10 6 7 11 -4 7 3 8 21 4 l28 -7 -18 27 c-9 15 -15 34 -12 42 4
11 2 12 -14 1 -19 -11 -21 -18 -24 -57 -1 -17 -36 -27 -36 -11 0 6 6 8 13 6 8
-4 13 7 14 31 1 20 9 54 17 75 19 48 19 46 1 53 -11 4 -15 0 -13 -11 2 -10 -5
-19 -14 -21 -13 -2 -16 1 -12 12 3 9 1 16 -5 16 -6 0 -8 6 -5 14 3 7 -5 31
-16 52 -15 25 -17 34 -6 25 11 -9 19 -10 33 -2 17 11 17 11 -1 9 -10 -2 -21 3
-24 11 -3 8 0 11 7 7 6 -4 11 -3 11 2 0 6 -8 13 -17 17 -17 7 -16 8 2 15 11 4
25 4 31 -1 6 -5 14 -6 18 -2 4 4 10 2 14 -4 11 -17 55 4 48 23 -4 12 -1 14 14
9 12 -4 26 0 36 9 14 15 14 16 -3 17 -16 0 -16 1 2 8 11 5 23 7 26 5 4 -2 5 9
3 25 -3 25 0 28 26 29 32 1 70 18 70 32 0 5 -7 7 -15 4 -8 -4 -15 -1 -15 5 0
6 -7 8 -16 4 -13 -5 -13 -7 -2 -14 10 -7 10 -9 0 -9 -15 0 -23 19 -26 55 -1
26 -10 32 -21 15 -4 -6 -10 -8 -14 -6 -4 3 -8 -1 -8 -9 0 -8 9 -15 20 -15 13
0 17 -5 13 -16 -3 -9 -6 -20 -6 -25 0 -6 -8 -9 -17 -7 -10 2 -18 -3 -18 -9 0
-7 -4 -13 -9 -12 -5 0 -13 -5 -18 -13 -7 -10 -8 -9 -4 5 7 21 -3 49 -15 41 -5
-3 -9 2 -9 10 0 14 12 20 33 17 10 -1 9 17 -2 23 -5 4 -11 0 -14 -6 -3 -10 -7
-10 -20 0 -9 8 -22 12 -29 10 -7 -3 -19 2 -27 10 -11 11 -12 18 -3 32 9 14 8
19 -4 24 -22 8 -31 7 -17 -2 8 -5 9 -13 3 -22 -7 -10 -10 -11 -10 -2 0 6 -4
12 -8 12 -4 0 -8 -8 -8 -19 0 -10 5 -17 12 -14 6 2 17 -3 24 -12 7 -9 9 -15 4
-14 -22 4 -23 -2 -4 -21 11 -11 25 -20 30 -20 6 0 10 9 10 20 0 11 4 20 9 20
14 0 23 -18 12 -24 -5 -3 -7 -16 -4 -29 5 -18 3 -20 -8 -9 -16 15 -49 16 -49
1 0 -5 4 -8 9 -4 15 8 23 -13 13 -31 -8 -14 -13 -8 -27 29 -16 42 -19 45 -33
30 -14 -14 -16 -14 -22 3 -6 17 -7 17 -18 -1 -10 -17 -11 -17 -12 -3 0 9 -5
20 -12 24 -6 4 -8 3 -4 -4 3 -6 2 -13 -4 -17 -6 -3 -14 4 -19 17 l-9 23 -12
-27 c-7 -15 -17 -25 -22 -22 -5 3 -2 15 8 25 19 21 11 40 -8 21 -7 -7 -19 -12
-27 -12 -14 0 -14 1 -1 10 8 5 10 10 5 10 -6 0 -17 -6 -24 -12 -10 -11 -15 -9
-27 6 -12 17 -14 18 -14 3 0 -9 -4 -17 -10 -17 -5 0 -10 -5 -10 -11 0 -5 4 -8
9 -5 5 3 11 -5 13 -19 4 -17 1 -25 -9 -25 -8 0 -11 5 -7 11 4 7 -1 7 -16 -1
-20 -11 -21 -10 -9 11 9 18 9 24 0 27 -9 3 -9 7 0 18 9 11 8 14 -4 14 -10 0
-14 -9 -13 -30 1 -17 -4 -32 -12 -35 -18 -7 -22 -6 -21 3 3 18 -2 35 -8 29 -3
-4 -13 3 -21 15 -12 16 -12 23 -4 26 15 5 16 34 1 49 -7 7 -2 9 18 5 25 -5 27
-3 15 11 -16 19 -6 60 11 51 7 -3 4 1 -5 9 -16 13 -15 14 12 15 27 1 29 -2 24
-24 -4 -15 -2 -24 5 -24 7 0 11 6 10 13 -1 6 1 20 6 30 4 10 0 32 -10 54 -17
35 -18 36 -32 17 -14 -18 -15 -18 -8 6 4 14 12 31 17 38 7 8 7 12 -1 12 -6 0
-11 -5 -11 -11 0 -6 -6 -9 -12 -6 -7 2 -12 9 -11 14 1 6 -9 8 -22 5 -30 -5
-32 -18 -5 -25 11 -3 20 -11 20 -17 0 -9 -3 -10 -13 -1 -8 6 -16 8 -20 5 -3
-3 -8 3 -11 14 -9 26 -33 35 -40 15z m71 -89 c-3 -3 -12 -4 -19 -1 -8 3 -5 6
6 6 11 1 17 -2 13 -5z m-973 -49 c3 -8 1 -15 -5 -15 -6 0 -7 -4 -4 -10 3 -5 1
-10 -4 -10 -6 0 -11 11 -11 25 0 27 15 34 24 10z m771 -24 c-3 -5 2 -16 10
-24 8 -9 15 -22 15 -29 0 -10 3 -9 10 2 8 13 10 12 10 -4 0 -14 -5 -17 -21
-13 -15 4 -18 2 -10 -7 11 -13 5 -26 -11 -26 -5 0 -6 5 -3 10 3 6 2 10 -3 10
-5 0 -8 19 -6 43 3 49 2 47 10 47 3 0 3 -4 -1 -9z m-341 -135 c-3 -8 -13 -12
-27 -8 -20 5 -20 6 -1 13 29 11 34 10 28 -5z m713 -38 c-3 -8 -6 -5 -6 6 -1
11 2 17 5 13 3 -3 4 -12 1 -19z m-1117 8 c0 -3 -4 -8 -10 -11 -5 -3 -10 -1
-10 4 0 6 5 11 10 11 6 0 10 -2 10 -4z m178 -60 c-13 -16 -28 7 -21 32 l6 23
12 -23 c6 -13 8 -27 3 -32z m1082 45 c0 -6 -5 -13 -12 -17 -6 -4 -8 -3 -4 4 3
5 0 13 -6 15 -8 3 -6 6 5 6 9 1 17 -3 17 -8z m54 -33 c7 -5 4 -8 -7 -8 -11 0
-15 -5 -11 -11 5 -8 1 -8 -13 0 -11 6 -24 7 -28 3 -4 -4 -6 -1 -4 6 3 8 8 12
12 10 5 -2 13 6 19 17 9 15 12 16 16 5 3 -8 10 -18 16 -22z m149 -3 c-6 -16
-16 -19 -26 -8 -9 8 13 34 24 28 4 -3 6 -12 2 -20z m-57 -5 c7 0 14 -11 16
-25 4 -19 2 -23 -7 -15 -6 5 -15 7 -18 3 -4 -3 -7 -2 -7 4 0 6 -9 13 -20 16
-11 3 -20 11 -20 17 0 8 8 10 23 6 12 -3 27 -6 33 -6z m-1351 -10 c3 -5 1 -10
-4 -10 -6 0 -11 5 -11 10 0 6 2 10 4 10 3 0 8 -4 11 -10z m1311 -23 c10 4 12
0 8 -12 -4 -10 -1 -21 7 -26 11 -7 11 -9 -3 -9 -10 0 -18 7 -18 16 0 8 -4 12
-10 9 -5 -3 -10 -1 -10 5 0 6 -5 8 -12 4 -8 -5 -7 -1 2 10 8 10 16 13 18 8 2
-6 10 -8 18 -5z m-66 -21 c0 -2 -7 -7 -16 -10 -8 -3 -12 -2 -9 4 6 10 25 14
25 6z m-50 -10 c0 -2 -8 -10 -17 -17 -16 -13 -17 -12 -4 4 13 16 21 21 21 13z
m0 -46 c0 -5 -5 -10 -11 -10 -5 0 -7 5 -4 10 3 6 8 10 11 10 2 0 4 -4 4 -10z
m-583 -35 c0 -8 -7 -15 -15 -15 -12 0 -12 3 -2 15 7 8 13 15 15 15 1 0 2 -7 2
-15z m580 -16 c5 -16 8 -18 15 -7 7 10 8 9 4 -4 -4 -12 0 -18 11 -18 9 0 14
-3 10 -6 -3 -4 -14 -3 -24 1 -30 13 -55 16 -48 5 3 -5 13 -10 22 -10 22 0 11
-10 -16 -15 -13 -2 -21 1 -21 10 0 7 -7 21 -16 30 -15 15 -14 15 10 9 21 -5
25 -3 20 10 -4 11 -1 16 11 16 9 0 19 -9 22 -21z m-634 -14 c11 -4 29 -3 44 4
30 14 47 0 39 -31 -4 -19 18 -25 28 -9 8 12 46 2 47 -13 1 -6 1 -19 0 -28 -2
-11 5 -18 14 -18 14 0 14 -2 3 -13 -7 -8 -23 -19 -36 -26 -12 -6 -22 -16 -22
-20 0 -13 34 -24 38 -12 5 14 28 14 54 0 17 -9 18 -13 7 -20 -12 -8 -12 -11 1
-19 13 -9 13 -10 0 -10 -9 0 -21 5 -27 11 -7 7 -15 6 -26 -5 -20 -21 -30 -20
-44 3 -13 21 -57 33 -71 19 -6 -6 -8 1 -4 18 4 23 2 26 -15 22 -13 -3 -31 4
-50 21 -25 21 -30 33 -27 60 3 26 0 34 -16 38 -24 6 -25 12 -3 28 18 13 38 13
66 0z m-73 -53 c0 -10 -38 -13 -44 -3 -3 3 6 8 20 9 13 1 24 -2 24 -6z m620
-12 c0 -5 -2 -10 -4 -10 -3 0 -8 5 -11 10 -3 6 -1 10 4 10 6 0 11 -4 11 -10z
m96 -5 c5 -12 10 -13 20 -4 11 9 14 8 14 -5 0 -10 8 -16 21 -16 14 0 19 -5 17
-17 -2 -10 -12 -18 -23 -18 -15 0 -20 -7 -19 -25 0 -15 5 -24 13 -22 7 1 10
-2 6 -7 -8 -15 -37 -1 -31 15 3 7 1 16 -3 19 -16 9 0 47 17 40 12 -4 13 -3 3
9 -7 8 -19 12 -27 9 -8 -3 -14 1 -14 11 0 9 -7 16 -16 16 -10 0 -14 -6 -10
-15 4 -12 -3 -15 -32 -14 -34 0 -35 1 -14 11 12 6 22 15 22 20 0 15 50 9 56
-7z m-764 -12 c-6 -2 -10 -9 -7 -13 3 -5 -3 -8 -14 -7 -15 1 -17 4 -9 14 6 7
18 13 27 12 10 0 12 -2 3 -6z m58 -13 c0 -5 -5 -10 -11 -10 -5 0 -7 5 -4 10 3
6 8 10 11 10 2 0 4 -4 4 -10z m637 -16 c-3 -3 -12 -4 -19 -1 -8 3 -5 6 6 6 11
1 17 -2 13 -5z m31 -29 c-3 -3 -9 2 -12 12 -6 14 -5 15 5 6 7 -7 10 -15 7 -18z
m-118 -47 c0 -5 -4 -8 -10 -8 -5 0 -10 6 -10 14 0 8 -5 16 -12 18 -7 3 -8 10
-3 17 6 10 11 8 21 -10 7 -13 13 -27 14 -31z m100 42 c0 -5 -5 -10 -11 -10 -5
0 -7 5 -4 10 3 6 8 10 11 10 2 0 4 -4 4 -10z m-704 -32 c-2 -20 -36 -27 -36
-7 0 5 5 7 11 3 7 -4 10 -1 7 7 -3 8 -11 13 -17 11 -7 -1 -10 2 -6 8 8 14 44
-5 41 -22z m510 5 c9 -12 13 -14 14 -5 0 7 5 10 12 6 8 -5 6 -11 -5 -19 -9 -7
-18 -22 -20 -33 -5 -32 -15 -37 -36 -18 -15 14 -21 15 -28 4 -12 -20 -46 -16
-60 7 -23 39 -26 46 -15 57 7 7 10 6 9 -3 -1 -8 3 -14 8 -14 6 0 9 6 9 13 -1
7 3 11 10 9 6 -2 11 -9 11 -14 0 -22 13 -24 20 -4 3 12 11 19 16 15 5 -3 7
-10 4 -15 -3 -5 1 -6 10 -3 10 4 14 2 10 -8 -3 -7 0 -21 7 -31 12 -16 13 -14
14 18 0 23 -4 35 -13 35 -8 0 -11 5 -8 10 9 14 16 12 31 -7z m64 -13 c0 -5 -4
-10 -10 -10 -5 0 -10 5 -10 10 0 6 5 10 10 10 6 0 10 -4 10 -10z m-20 -26 c0
-8 -19 -13 -24 -6 -3 5 1 9 9 9 8 0 15 -2 15 -3z m-203 -35 c2 -16 -1 -19 -9
-11 -5 5 -7 15 -4 21 10 15 12 14 13 -10z m193 -4 c0 -8 -4 -15 -10 -15 -5 0
-7 7 -4 15 4 8 8 15 10 15 2 0 4 -7 4 -15z m82 -3 c9 -9 9 -12 0 -12 -7 0 -12
5 -12 11 0 5 -4 8 -9 4 -5 -3 -12 -1 -15 4 -8 13 22 7 36 -7z m218 -12 c0 -11
-2 -20 -4 -20 -2 0 -6 9 -9 20 -3 11 -1 20 4 20 5 0 9 -9 9 -20z m-280 -28
c-16 -26 -18 -37 -9 -48 9 -11 8 -14 -4 -14 -8 0 -18 -6 -20 -12 -3 -7 -6 -2
-6 12 -1 20 -3 22 -11 10 -9 -13 -10 -13 -10 1 0 8 6 21 13 29 10 12 9 12 -5
1 -15 -11 -21 -11 -33 -1 -8 7 -15 9 -15 4 0 -5 -5 -1 -11 9 -13 22 -13 23 28
30 25 5 32 3 35 -11 3 -15 5 -15 23 4 33 33 48 25 25 -14z m102 -45 c-3 -12
-7 -16 -9 -10 -3 7 -11 9 -19 6 -16 -6 -19 13 -4 22 6 4 8 16 4 28 -6 22 -6
22 14 -1 13 -15 18 -30 14 -45z m-42 43 c0 -5 -7 -10 -15 -10 -13 0 -13 -3 -3
-20 17 -26 3 -36 -27 -20 -14 7 -23 15 -20 18 2 3 11 -1 19 -7 8 -7 17 -8 20
-3 3 6 -1 15 -9 22 -22 18 -18 30 10 30 14 0 25 -4 25 -10z m73 -49 c-9 -34
-18 -24 -16 16 2 50 3 52 13 26 5 -11 6 -30 3 -42z m97 34 c0 -8 -4 -15 -10
-15 -5 0 -7 7 -4 15 4 8 8 15 10 15 2 0 4 -7 4 -15z m30 -17 c0 -19 -2 -20
-10 -8 -13 19 -13 30 0 30 6 0 10 -10 10 -22z m-389 -11 c-10 -9 -11 -8 -5 6
3 10 9 15 12 12 3 -3 0 -11 -7 -18z m49 -9 c0 -10 -7 -21 -15 -24 -8 -4 -15
-10 -15 -16 0 -5 5 -6 10 -3 6 3 10 2 10 -4 0 -5 -5 -13 -10 -16 -6 -4 -7 -11
-4 -17 4 -7 2 -8 -5 -4 -6 4 -9 12 -6 17 5 8 -7 13 -26 11 -4 -1 -5 8 -2 18 3
12 0 20 -6 20 -7 0 -9 -4 -6 -10 3 -5 1 -10 -5 -10 -7 0 -10 6 -7 13 2 6 16
12 30 11 14 -1 26 2 25 5 -2 19 4 28 17 28 8 0 15 -9 15 -19z m-90 2 c0 -5 -7
-10 -15 -10 -8 0 -15 5 -15 10 0 6 7 10 15 10 8 0 15 -4 15 -10z m321 -13
c-10 -9 -11 -8 -5 6 3 10 9 15 12 12 3 -3 0 -11 -7 -18z m-336 -17 c3 -5 -1
-10 -9 -10 -9 0 -16 5 -16 10 0 6 4 10 9 10 6 0 13 -4 16 -10z m260 3 c-11 -3
-23 -10 -27 -17 -5 -7 -8 -5 -8 7 0 12 7 17 28 16 21 -1 22 -2 7 -6z m51 -29
c2 -12 -1 -13 -12 -3 -11 9 -14 9 -14 0 0 -7 -5 -9 -12 -5 -8 5 -5 11 7 20 20
15 28 12 31 -12z m-96 -10 c0 -8 -4 -12 -10 -9 -5 3 -10 10 -10 16 0 5 5 9 10
9 6 0 10 -7 10 -16z m-62 -20 c-7 -6 -24 -15 -38 -19 l-25 -6 24 19 c27 21 61
27 39 6z m212 -34 c-8 -5 -19 -10 -25 -10 -5 0 -3 5 5 10 8 5 20 10 25 10 6 0
3 -5 -5 -10z m-570 -61 c0 -21 16 -26 24 -6 3 6 3 0 0 -15 -4 -17 -2 -28 5
-28 6 0 11 -5 11 -11 0 -6 -8 -9 -17 -7 -10 2 -17 9 -16 16 2 6 -6 16 -18 22
-16 9 -18 14 -8 26 6 8 9 15 5 15 -3 1 -10 2 -15 3 -5 0 -13 5 -18 10 -5 5 -3
6 5 2 7 -4 12 -2 12 5 0 8 4 8 15 -1 8 -7 15 -21 15 -31z m505 21 c-3 -4 1
-10 7 -13 7 -2 18 5 25 17 10 17 12 18 13 4 0 -9 6 -18 13 -21 9 -4 9 -7 -1
-18 -7 -8 -13 -9 -12 -4 5 24 -1 27 -15 9 -8 -10 -15 -14 -15 -8 0 7 -11 15
-25 18 -21 5 -23 9 -13 20 13 14 32 11 23 -4z m85 16 c0 -3 -4 -8 -10 -11 -5
-3 -10 -1 -10 4 0 6 5 11 10 11 6 0 10 -2 10 -4z m-644 -80 c2 -17 -21 -22
-31 -6 -3 6 -1 10 6 10 8 0 7 5 -2 17 -13 15 -12 15 5 6 11 -6 21 -18 22 -27z
m194 14 c-8 -5 -19 -10 -25 -10 -5 0 -3 5 5 10 8 5 20 10 25 10 6 0 3 -5 -5
-10z m-826 -32 c4 -17 2 -28 -4 -28 -5 0 -9 3 -9 8 3 19 -2 25 -11 12 -9 -13
-10 -13 -10 1 0 13 21 43 25 36 1 -1 5 -14 9 -29z m286 13 c0 -5 -7 -12 -16
-15 -24 -9 -28 -7 -14 9 14 17 30 20 30 6z m910 -17 c0 -2 -7 -4 -15 -4 -8 0
-15 4 -15 10 0 5 7 7 15 4 8 -4 15 -8 15 -10z m-54 -20 c2 -28 1 -28 -15 4 -9
17 -9 22 1 22 7 0 14 -12 14 -26z m-1344 -6 c-7 -7 -12 -8 -12 -2 0 14 12 26
19 19 2 -3 -1 -11 -7 -17z m55 16 c-3 -3 -12 -4 -19 -1 -8 3 -5 6 6 6 11 1 17
-2 13 -5z m427 -34 c-6 -6 -10 -3 -10 10 0 13 4 16 10 10 7 -7 7 -13 0 -20z
m466 15 c10 -12 9 -16 -4 -21 -9 -3 -16 -14 -16 -24 0 -12 -7 -18 -18 -17 -12
0 -18 9 -18 23 0 13 3 21 7 18 4 -2 14 -1 23 2 13 5 14 9 5 20 -7 8 -7 14 -1
14 5 0 15 -7 22 -15z m-140 -31 c0 -8 -5 -12 -10 -9 -6 4 -8 11 -5 16 9 14 15
11 15 -7z m-350 -8 c0 -3 -4 -8 -10 -11 -5 -3 -10 -1 -10 4 0 6 5 11 10 11 6
0 10 -2 10 -4z m300 -8 c0 10 3 10 14 0 13 -12 12 -24 -2 -22 -4 0 -14 -8 -22
-18 -10 -12 -20 -15 -29 -9 -11 7 -9 10 9 16 16 5 19 9 10 15 -7 4 -9 13 -5
20 6 9 9 9 16 -1 7 -11 9 -11 9 -1z m-530 -51 c0 7 7 10 15 7 20 -8 19 -24 -4
-53 -16 -20 -19 -21 -24 -7 -5 12 -3 15 6 10 9 -5 9 -4 0 7 -7 7 -13 22 -13
34 0 16 2 17 10 5 6 -9 10 -11 10 -3z m59 -29 c1 -5 -3 -8 -9 -8 -5 0 -10 12
-9 28 0 24 1 25 9 7 5 -11 9 -23 9 -27z m103 20 c-7 -7 -12 -8 -12 -2 0 6 3
14 7 17 3 4 9 5 12 2 2 -3 -1 -11 -7 -17z m425 -20 c-3 -8 -6 -5 -6 6 -1 11 2
17 5 13 3 -3 4 -12 1 -19z m4 -29 c11 -5 17 -14 14 -20 -4 -5 -1 -9 5 -9 6 0
8 -5 4 -11 -4 -8 -10 -5 -17 7 -6 11 -18 24 -26 31 -20 15 -7 17 20 2z m59
-18 c0 -11 -4 -22 -9 -25 -11 -7 -20 14 -13 32 7 19 22 14 22 -7z m-130 -51
c0 -5 -2 -10 -4 -10 -3 0 -8 5 -11 10 -3 6 -1 10 4 10 6 0 11 -4 11 -10z m-66
-12 c-3 -4 -11 -5 -19 -1 -21 7 -19 12 4 10 11 0 18 -5 15 -9z"/>
<path d="M3200 3279 c0 -5 5 -7 10 -4 6 3 10 8 10 11 0 2 -4 4 -10 4 -5 0 -10
-5 -10 -11z"/>
<path d="M3350 3275 c0 -16 28 -40 37 -32 3 4 1 13 -5 20 -7 8 -10 16 -7 19 3
2 -2 5 -10 5 -8 0 -15 -6 -15 -12z"/>
<path d="M3276 3244 c-9 -24 -8 -26 14 -14 11 6 18 15 15 21 -9 14 -22 11 -29
-7z"/>
<path d="M3520 3149 c0 -18 18 -29 38 -22 6 3 12 9 12 15 0 6 -8 7 -17 4 -9
-4 -20 -1 -25 6 -6 10 -8 9 -8 -3z"/>
<path d="M2710 3911 c0 -5 7 -11 14 -14 10 -4 13 -1 9 9 -6 15 -23 19 -23 5z"/>
<path d="M4400 3905 c0 -8 4 -15 8 -15 5 0 9 7 9 15 0 8 -4 15 -9 15 -4 0 -8
-7 -8 -15z"/>
<path d="M4491 3895 c0 -11 3 -14 6 -7 2 6 11 12 19 12 8 0 14 4 14 8 0 4 -9
8 -20 8 -14 0 -20 -7 -19 -21z"/>
<path d="M2346 3893 c-6 -14 -5 -15 5 -6 7 7 10 15 7 18 -3 3 -9 -2 -12 -12z"/>
<path d="M4446 3900 c-15 -5 -16 -9 -7 -14 7 -5 18 -3 24 3 14 14 6 20 -17 11z"/>
<path d="M4560 3896 c0 -9 5 -16 10 -16 6 0 10 4 10 9 0 6 -4 13 -10 16 -5 3
-10 -1 -10 -9z"/>
<path d="M3255 3890 c-3 -5 -1 -10 4 -10 6 0 11 5 11 10 0 6 -2 10 -4 10 -3 0
-8 -4 -11 -10z"/>
<path d="M3647 3893 c-4 -3 -2 -12 3 -19 6 -6 9 -17 8 -24 -2 -7 3 -14 10 -15
7 -2 8 -1 2 2 -8 3 -7 9 1 19 9 11 8 15 -5 20 -9 3 -13 10 -10 15 6 10 0 12
-9 2z"/>
<path d="M3840 3890 c0 -5 5 -10 10 -10 6 0 10 5 10 10 0 6 -4 10 -10 10 -5 0
-10 -4 -10 -10z"/>
<path d="M2515 3880 c3 -5 11 -10 16 -10 6 0 7 5 4 10 -3 6 -11 10 -16 10 -6
0 -7 -4 -4 -10z"/>
<path d="M3081 3878 c-1 -18 30 -20 46 -3 5 4 -2 6 -14 3 -12 -3 -24 -1 -27 6
-2 6 -5 3 -5 -6z"/>
<path d="M3787 3873 c3 -8 -2 -13 -16 -13 -12 0 -21 5 -21 12 0 6 -3 8 -7 5
-3 -4 1 -15 9 -24 28 -33 33 -47 15 -40 -12 5 -17 1 -17 -13 0 -11 7 -20 16
-20 8 0 13 4 10 9 -3 5 1 14 9 21 12 10 13 16 4 26 -7 9 -8 14 -1 14 5 0 12 8
14 18 3 11 0 19 -7 19 -7 0 -11 -6 -8 -14z"/>
<path d="M2222 3871 c-11 -7 -11 -9 0 -14 9 -3 15 1 15 9 0 8 -1 14 -1 14 -1
0 -7 -4 -14 -9z"/>
<path d="M2590 3864 c0 -8 5 -12 10 -9 6 3 10 10 10 16 0 5 -4 9 -10 9 -5 0
-10 -7 -10 -16z"/>
<path d="M4110 3869 c0 -5 5 -7 10 -4 6 3 10 8 10 11 0 2 -4 4 -10 4 -5 0 -10
-5 -10 -11z"/>
<path d="M4245 3870 c-3 -5 -2 -10 4 -10 5 0 13 5 16 10 3 6 2 10 -4 10 -5 0
-13 -4 -16 -10z"/>
<path d="M4380 3859 c0 -10 -5 -19 -11 -19 -6 0 -9 -6 -6 -14 3 -8 -5 -18 -19
-25 -32 -14 -31 -31 2 -31 19 0 25 -4 20 -15 -3 -8 -9 -23 -13 -32 -5 -13 -3
-15 11 -10 11 4 15 3 11 -4 -4 -6 -13 -8 -21 -5 -7 3 -16 1 -19 -4 -6 -9 0
-12 35 -14 8 -1 16 -9 18 -20 3 -11 0 -16 -7 -12 -6 4 -11 2 -11 -3 0 -6 5
-11 10 -11 6 0 10 -6 10 -14 0 -25 18 -28 30 -6 10 18 9 21 -6 18 -12 -2 -17
4 -18 25 -1 16 2 31 6 33 4 3 5 11 1 19 -3 8 0 15 6 15 6 0 11 5 11 11 0 6 -5
7 -12 2 -23 -14 -40 -12 -34 4 3 8 6 19 6 25 0 6 6 8 14 5 14 -6 36 10 36 27
0 6 -5 5 -11 -1 -9 -9 -15 -8 -25 2 -19 19 -18 31 1 15 9 -7 18 -10 22 -7 3 4
0 13 -7 22 -9 11 -10 15 0 15 18 0 6 23 -13 26 -11 1 -17 -5 -17 -17z"/>
<path d="M4015 3859 c-12 -19 5 -23 22 -6 16 16 16 17 1 17 -9 0 -20 -5 -23
-11z"/>
<path d="M4310 3850 c0 -25 -29 -38 -41 -19 -6 10 -9 8 -9 -9 0 -20 4 -22 23
-16 12 4 32 17 43 30 18 19 19 24 7 28 -22 9 -23 8 -23 -14z"/>
<path d="M2509 3853 c-1 -5 -1 -11 0 -15 0 -5 -4 -8 -10 -8 -5 0 -7 -5 -4 -11
5 -6 12 -4 20 8 11 15 15 16 31 3 14 -12 18 -12 22 -2 3 10 7 10 18 2 14 -12
34 -6 34 11 0 6 -9 8 -19 4 -11 -3 -23 -1 -26 6 -6 8 -10 7 -17 -2 -7 -11 -11
-11 -15 -1 -5 13 -32 17 -34 5z"/>
<path d="M4433 3846 c-12 -15 -7 -26 12 -26 6 0 11 9 11 20 0 23 -6 25 -23 6z"/>
<path d="M2453 3837 c0 -8 6 -14 14 -14 9 0 10 4 2 14 -6 7 -12 13 -14 13 -1
0 -2 -6 -2 -13z"/>
<path d="M2785 3840 c3 -5 11 -10 16 -10 6 0 7 5 4 10 -3 6 -11 10 -16 10 -6
0 -7 -4 -4 -10z"/>
<path d="M4885 3840 c-3 -5 -2 -10 4 -10 5 0 13 5 16 10 3 6 2 10 -4 10 -5 0
-13 -4 -16 -10z"/>
<path d="M2275 3830 c3 -5 8 -10 11 -10 2 0 4 5 4 10 0 6 -5 10 -11 10 -5 0
-7 -4 -4 -10z"/>
<path d="M3852 3819 c-15 -24 -15 -49 -1 -49 8 0 7 -6 -2 -17 -12 -15 -12 -16
1 -8 8 5 21 10 28 11 8 2 17 6 20 10 4 4 0 5 -10 1 -19 -7 -30 22 -17 46 13
23 -5 29 -19 6z"/>
<path d="M4607 3819 c3 -10 11 -15 17 -13 19 7 15 33 -4 31 -11 -1 -15 -7 -13
-18z"/>
<path d="M3672 3796 c-15 -33 -11 -44 7 -22 7 8 11 23 9 32 -2 14 -6 11 -16
-10z"/>
<path d="M4140 3814 c0 -6 9 -19 20 -29 11 -10 20 -14 20 -9 0 13 -20 41 -20
29 0 -5 -5 -3 -10 5 -5 8 -10 10 -10 4z"/>
<path d="M4497 3809 c-18 -11 -18 -11 0 -29 21 -20 53 -10 53 18 0 13 -2 14
-9 3 -5 -7 -14 -10 -20 -7 -6 4 -9 12 -6 17 8 11 5 11 -18 -2z"/>
<path d="M4710 3809 c0 -5 5 -7 10 -4 6 3 10 8 10 11 0 2 -4 4 -10 4 -5 0 -10
-5 -10 -11z"/>
<path d="M3142 3777 c-17 -40 -15 -55 4 -29 8 12 14 30 11 40 -3 13 -6 11 -15
-11z"/>
<path d="M3976 3775 c-3 -8 -1 -15 4 -15 6 0 10 7 10 15 0 8 -2 15 -4 15 -2 0
-6 -7 -10 -15z"/>
<path d="M4070 3780 c-18 -4 -21 -8 -12 -14 7 -4 16 -5 19 -2 4 4 13 -8 20
-25 11 -28 15 -30 30 -18 15 13 15 14 -1 17 -12 3 -15 9 -10 24 4 13 2 18 -4
14 -6 -3 -12 -2 -14 2 -1 5 -14 6 -28 2z"/>
<path d="M4665 3780 c3 -5 8 -10 11 -10 2 0 4 5 4 10 0 6 -5 10 -11 10 -5 0
-7 -4 -4 -10z"/>
<path d="M3720 3769 c0 -5 5 -7 10 -4 6 3 10 8 10 11 0 2 -4 4 -10 4 -5 0 -10
-5 -10 -11z"/>
<path d="M4283 3765 c0 -9 9 -15 25 -15 18 0 23 -4 18 -16 -5 -14 -4 -15 9 -4
22 18 19 30 -8 30 -13 0 -28 5 -33 10 -7 7 -11 6 -11 -5z"/>
<path d="M4570 3766 c7 -7 13 -7 20 0 6 6 3 10 -10 10 -13 0 -16 -4 -10 -10z"/>
<path d="M2650 3764 c0 -2 9 -8 20 -14 11 -6 20 -7 20 -2 0 6 -9 12 -20 15
-11 3 -20 3 -20 1z"/>
<path d="M4430 3760 c0 -5 7 -7 15 -4 8 4 15 8 15 10 0 2 -7 4 -15 4 -8 0 -15
-4 -15 -10z"/>
<path d="M4476 3753 c-6 -14 -5 -15 5 -6 7 7 10 15 7 18 -3 3 -9 -2 -12 -12z"/>
<path d="M2715 3750 c-3 -5 -1 -10 4 -10 6 0 11 5 11 10 0 6 -2 10 -4 10 -3 0
-8 -4 -11 -10z"/>
<path d="M2775 3749 c-4 -6 -5 -12 -2 -15 2 -3 7 2 10 11 7 17 1 20 -8 4z"/>
<path d="M3605 3750 c3 -5 8 -10 11 -10 2 0 4 5 4 10 0 6 -5 10 -11 10 -5 0
-7 -4 -4 -10z"/>
<path d="M3782 3753 c-6 -3 -10 -9 -7 -13 3 -5 -5 -19 -17 -31 -20 -19 -20
-20 -3 -12 11 6 26 8 34 5 10 -3 11 1 6 18 -5 15 -4 20 4 16 6 -4 11 -18 11
-32 0 -14 4 -23 9 -19 6 3 14 -3 20 -12 5 -10 13 -14 17 -10 10 10 -21 69 -44
83 -9 6 -23 9 -30 7z"/>
<path d="M4210 3745 c-7 -9 -8 -15 -2 -15 5 0 12 7 16 15 3 8 4 15 2 15 -2 0
-9 -7 -16 -15z"/>
<path d="M4250 3750 c0 -5 5 -10 10 -10 6 0 10 5 10 10 0 6 -4 10 -10 10 -5 0
-10 -4 -10 -10z"/>
<path d="M4640 3750 c0 -6 12 -10 27 -10 29 0 24 12 -7 17 -11 2 -20 -2 -20
-7z"/>
<path d="M3685 3741 c-2 -4 0 -13 4 -19 9 -14 45 -4 48 14 2 12 -44 16 -52 5z"/>
<path d="M3930 3740 c0 -5 7 -7 15 -4 8 4 15 8 15 10 0 2 -7 4 -15 4 -8 0 -15
-4 -15 -10z"/>
<path d="M4515 3740 c3 -5 8 -10 11 -10 2 0 4 5 4 10 0 6 -5 10 -11 10 -5 0
-7 -4 -4 -10z"/>
<path d="M4075 3730 c3 -5 8 -10 11 -10 2 0 4 5 4 10 0 6 -5 10 -11 10 -5 0
-7 -4 -4 -10z"/>
<path d="M4600 3730 c-9 -6 -10 -10 -3 -10 6 0 15 5 18 10 8 12 4 12 -15 0z"/>
<path d="M2465 3720 c-3 -5 -2 -10 4 -10 5 0 13 5 16 10 3 6 2 10 -4 10 -5 0
-13 -4 -16 -10z"/>
<path d="M3617 3723 c-12 -12 -7 -22 8 -17 8 4 15 10 15 15 0 11 -14 12 -23 2z"/>
<path d="M3657 3715 c3 -8 9 -12 14 -9 12 7 11 11 -5 17 -10 4 -13 1 -9 -8z"/>
<path d="M3950 3726 c0 -2 9 -6 20 -9 11 -3 18 -1 14 4 -5 9 -34 13 -34 5z"/>
<path d="M4256 3715 c-3 -8 -1 -15 4 -15 6 0 10 7 10 15 0 8 -2 15 -4 15 -2 0
-6 -7 -10 -15z"/>
<path d="M4540 3715 c0 -8 4 -15 10 -15 5 0 7 7 4 15 -4 8 -8 15 -10 15 -2 0
-4 -7 -4 -15z"/>
<path d="M4623 3710 c-13 -20 -5 -34 13 -22 11 7 15 42 5 42 -4 0 -12 -9 -18
-20z"/>
<path d="M2660 3710 c0 -8 31 -30 43 -30 3 0 7 9 10 21 5 17 3 18 -10 7 -13
-10 -17 -10 -20 0 -5 14 -23 16 -23 2z"/>
<path d="M4574 3715 c2 -6 1 -17 -4 -25 -10 -16 5 -40 24 -40 6 0 3 5 -7 11
-9 6 -15 15 -11 21 4 6 10 5 15 -3 5 -8 9 -9 9 -3 0 5 -7 19 -16 30 -8 10 -13
14 -10 9z"/>
<path d="M3008 3703 c6 -2 18 -2 25 0 6 3 1 5 -13 5 -14 0 -19 -2 -12 -5z"/>
<path d="M4436 3688 c-17 -19 -16 -19 6 -13 13 4 27 13 31 19 6 7 7 4 3 -7 -3
-10 -6 -21 -6 -23 0 -3 -4 -3 -9 0 -10 7 -31 -39 -35 -79 -3 -30 -26 -49 -26
-21 0 8 -5 18 -12 22 -7 5 -9 0 -6 -14 4 -16 2 -19 -11 -15 -13 4 -13 3 2 -7
9 -6 17 -20 17 -30 0 -10 4 -22 10 -25 5 -3 7 0 4 8 -3 9 8 26 28 42 18 15 27
24 21 20 -8 -4 -13 0 -13 11 0 13 3 14 15 4 8 -7 15 -18 15 -25 0 -15 24 -37
32 -29 9 8 -3 44 -13 38 -5 -3 -9 0 -9 6 0 7 8 9 20 5 25 -8 26 3 3 21 -17 13
-17 13 0 14 15 0 16 3 6 21 -9 17 -8 23 2 30 9 5 16 4 18 -4 2 -7 9 -16 15
-20 7 -6 4 -7 -6 -3 -10 3 -18 1 -18 -4 0 -6 4 -10 10 -10 5 0 16 -15 24 -32
8 -18 15 -27 15 -20 1 9 8 11 20 7 28 -9 39 32 14 50 -15 12 -19 11 -24 -3 -4
-12 -12 -2 -29 35 -21 49 -24 52 -60 51 -25 0 -43 -7 -54 -20z m88 4 c2 -4 -5
-9 -17 -9 -17 -2 -19 0 -7 7 18 12 18 12 24 2z m86 -96 c0 -3 -4 -8 -10 -11
-5 -3 -10 -1 -10 4 0 6 5 11 10 11 6 0 10 -2 10 -4z"/>
<path d="M2940 3690 c0 -5 5 -10 10 -10 6 0 10 5 10 10 0 6 -4 10 -10 10 -5 0
-10 -4 -10 -10z"/>
<path d="M3690 3690 c0 -5 5 -10 11 -10 5 0 7 5 4 10 -3 6 -8 10 -11 10 -2 0
-4 -4 -4 -10z"/>
<path d="M3874 3679 c0 -10 4 -19 8 -19 4 0 8 6 8 14 0 8 -4 17 -8 20 -4 2 -8
-4 -8 -15z"/>
<path d="M3969 3684 c-13 -16 -2 -17 41 -5 l25 7 -27 6 c-17 3 -32 0 -39 -8z"/>
<path d="M2509 3688 c-5 -18 -6 -38 -1 -34 7 8 12 36 6 36 -2 0 -4 -1 -5 -2z"/>
<path d="M3720 3682 c0 -10 23 -22 41 -22 5 0 9 5 9 11 0 5 -5 7 -10 4 -6 -4
-17 -1 -25 5 -9 7 -15 8 -15 2z"/>
<path d="M4260 3681 c0 -5 -10 -7 -22 -5 -13 2 -17 2 -10 -2 6 -3 10 -10 7
-14 -3 -5 0 -12 6 -16 8 -5 9 -3 4 6 -5 9 -2 10 14 5 17 -5 21 -2 21 14 0 12
-4 21 -10 21 -5 0 -10 -4 -10 -9z"/>
<path d="M3580 3666 c0 -7 6 -19 14 -25 11 -9 12 -6 8 14 -5 26 -22 35 -22 11z"/>
<path d="M3790 3670 c0 -5 5 -10 11 -10 5 0 7 5 4 10 -3 6 -8 10 -11 10 -2 0
-4 -4 -4 -10z"/>
<path d="M4320 3664 c0 -8 5 -12 10 -9 6 3 10 10 10 16 0 5 -4 9 -10 9 -5 0
-10 -7 -10 -16z"/>
<path d="M2675 3660 c-3 -5 -1 -10 4 -10 6 0 11 5 11 10 0 6 -2 10 -4 10 -3 0
-8 -4 -11 -10z"/>
<path d="M2837 3651 c-4 -17 -3 -21 5 -13 5 5 8 16 6 23 -3 8 -7 3 -11 -10z"/>
<path d="M4683 3663 c4 -3 2 -12 -5 -20 -8 -11 -7 -12 6 -7 18 7 22 34 4 34
-6 0 -8 -3 -5 -7z"/>
<path d="M3820 3650 c0 -6 7 -10 15 -10 8 0 15 2 15 4 0 2 -7 6 -15 10 -8 3
-15 1 -15 -4z"/>
<path d="M4130 3650 c0 -5 5 -10 11 -10 5 0 7 5 4 10 -3 6 -8 10 -11 10 -2 0
-4 -4 -4 -10z"/>
<path d="M4170 3651 c0 -13 26 -32 33 -24 11 10 8 25 -3 18 -5 -3 -10 -1 -10
4 0 6 -4 11 -10 11 -5 0 -10 -4 -10 -9z"/>
<path d="M3859 3634 c-10 -12 -8 -14 12 -10 13 3 28 5 33 5 13 1 -2 14 -19 17
-8 1 -19 -4 -26 -12z"/>
<path d="M4260 3630 c0 -5 5 -10 10 -10 6 0 10 5 10 10 0 6 -4 10 -10 10 -5 0
-10 -4 -10 -10z"/>
<path d="M4355 3622 c-5 -4 -10 -13 -10 -19 0 -7 -4 -13 -9 -12 -9 1 -26 -21
-26 -34 0 -5 7 -2 15 7 9 8 22 13 30 10 11 -5 14 2 12 25 -1 17 -2 31 -2 31 0
0 -4 -4 -10 -8z"/>
<path d="M4643 3614 c1 -21 27 -23 27 -2 0 5 -4 7 -9 4 -5 -4 -11 0 -14 6 -3
7 -4 3 -4 -8z"/>
<path d="M2526 3608 c3 -4 9 -8 15 -8 5 0 9 4 9 8 0 5 -7 9 -15 9 -8 0 -12 -4
-9 -9z"/>
<path d="M2810 3610 c0 -5 5 -10 10 -10 6 0 10 5 10 10 0 6 -4 10 -10 10 -5 0
-10 -4 -10 -10z"/>
<path d="M2845 3610 c-4 -7 -2 -16 6 -20 10 -7 10 -11 0 -24 -11 -13 -11 -16
2 -16 12 0 15 8 12 31 -5 37 -10 45 -20 29z"/>
<path d="M4525 3601 c-3 -5 -1 -12 5 -16 5 -3 10 1 10 9 0 18 -6 21 -15 7z"/>
<path d="M4275 3590 c-3 -5 -1 -10 4 -10 6 0 11 5 11 10 0 6 -2 10 -4 10 -3 0
-8 -4 -11 -10z"/>
<path d="M2520 3578 c0 -4 7 -8 15 -8 8 0 15 4 15 8 0 5 -7 9 -15 9 -8 0 -15
-4 -15 -9z"/>
<path d="M4190 3572 c0 -7 -6 -10 -12 -7 -7 4 -5 0 4 -8 10 -8 16 -17 13 -21
-3 -3 0 -2 6 3 8 6 8 14 0 28 -6 10 -11 13 -11 5z"/>
<path d="M4520 3556 c0 -8 5 -18 12 -22 7 -4 8 -3 4 4 -4 7 -2 12 3 12 6 0 11
5 11 10 0 6 -7 10 -15 10 -8 0 -15 -6 -15 -14z"/>
<path d="M2521 3550 c-9 -5 -3 -9 16 -13 34 -6 37 -5 14 10 -10 6 -23 8 -30 3z"/>
<path d="M4155 3537 c1 -12 3 -29 4 -37 1 -13 2 -13 11 0 14 22 12 47 -4 53
-9 4 -12 -2 -11 -16z"/>
<path d="M4115 3540 c-4 -7 0 -19 9 -28 20 -21 26 -13 10 16 -8 16 -14 20 -19
12z"/>
<path d="M4440 3532 c0 -5 7 -9 15 -9 8 0 12 4 9 9 -3 4 -9 8 -15 8 -5 0 -9
-4 -9 -8z"/>
<path d="M4557 3533 c-4 -3 -7 -11 -7 -17 0 -6 5 -5 12 2 6 6 9 14 7 17 -3 3
-9 2 -12 -2z"/>
<path d="M4583 3524 c-3 -8 -1 -20 5 -26 7 -7 10 -2 9 16 -2 30 -5 32 -14 10z"/>
<path d="M2455 3520 c3 -5 8 -10 11 -10 2 0 4 5 4 10 0 6 -5 10 -11 10 -5 0
-7 -4 -4 -10z"/>
<path d="M2560 3500 c-16 -13 -18 -18 -7 -14 11 4 26 -1 37 -11 12 -11 20 -13
20 -7 0 7 -5 12 -11 12 -6 0 -8 9 -4 20 8 25 -3 25 -35 0z"/>
<path d="M4925 3510 c3 -5 10 -10 16 -10 5 0 9 5 9 10 0 6 -7 10 -16 10 -8 0
-12 -4 -9 -10z"/>
<path d="M2295 3490 c-3 -5 -2 -10 4 -10 5 0 13 5 16 10 3 6 2 10 -4 10 -5 0
-13 -4 -16 -10z"/>
<path d="M2910 3490 c0 -5 5 -10 11 -10 5 0 7 5 4 10 -3 6 -8 10 -11 10 -2 0
-4 -4 -4 -10z"/>
<path d="M4097 3494 c-3 -4 3 -14 14 -23 20 -16 18 -51 -2 -51 -4 0 -6 -7 -2
-16 5 -13 7 -13 14 -2 5 7 20 13 35 13 31 0 63 38 43 51 -7 4 -10 3 -5 -4 10
-16 -21 -41 -45 -35 -11 3 -17 9 -12 12 14 9 25 44 12 36 -6 -4 -18 0 -28 9
-10 9 -20 13 -24 10z"/>
<path d="M2506 3482 c-3 -6 -1 -14 5 -17 14 -9 20 -2 10 14 -6 8 -11 9 -15 3z"/>
<path d="M4547 3470 c-3 -11 -2 -20 3 -20 12 0 21 28 11 35 -5 2 -11 -4 -14
-15z"/>
<path d="M2435 3450 c-3 -6 1 -7 9 -4 18 7 21 14 7 14 -6 0 -13 -4 -16 -10z"/>
<path d="M4090 3449 c0 -5 5 -7 10 -4 6 3 10 8 10 11 0 2 -4 4 -10 4 -5 0 -10
-5 -10 -11z"/>
<path d="M4251 3451 c-1 -8 -7 -11 -18 -7 -14 6 -13 2 4 -15 26 -27 33 -24 22
11 -4 14 -7 19 -8 11z"/>
<path d="M2400 3439 c0 -5 5 -7 10 -4 6 3 10 8 10 11 0 2 -4 4 -10 4 -5 0 -10
-5 -10 -11z"/>
<path d="M2518 3433 c7 -3 16 -2 19 1 4 3 -2 6 -13 5 -11 0 -14 -3 -6 -6z"/>
<path d="M3930 3430 c0 -5 5 -10 10 -10 6 0 10 -9 10 -20 0 -12 7 -20 18 -20
14 0 15 2 2 10 -13 8 -11 11 7 16 13 4 20 10 17 15 -3 5 -9 7 -14 4 -5 -3 -19
-1 -30 5 -13 7 -20 7 -20 0z"/>
<path d="M4017 3433 c-4 -3 -7 -11 -7 -17 0 -6 5 -5 12 2 6 6 9 14 7 17 -3 3
-9 2 -12 -2z"/>
<path d="M4550 3430 c0 -5 5 -10 10 -10 6 0 10 5 10 10 0 6 -4 10 -10 10 -5 0
-10 -4 -10 -10z"/>
<path d="M4065 3420 c-3 -6 1 -7 9 -4 18 7 21 14 7 14 -6 0 -13 -4 -16 -10z"/>
<path d="M4305 3420 c3 -5 8 -10 11 -10 2 0 4 5 4 10 0 6 -5 10 -11 10 -5 0
-7 -4 -4 -10z"/>
<path d="M2410 3399 c0 -5 5 -7 10 -4 6 3 10 8 10 11 0 2 -4 4 -10 4 -5 0 -10
-5 -10 -11z"/>
<path d="M4226 3387 c3 -10 9 -15 12 -12 3 3 0 11 -7 18 -10 9 -11 8 -5 -6z"/>
<path d="M4335 3390 c3 -5 8 -10 11 -10 2 0 4 5 4 10 0 6 -5 10 -11 10 -5 0
-7 -4 -4 -10z"/>
<path d="M4000 3380 c0 -5 5 -10 11 -10 5 0 7 5 4 10 -3 6 -8 10 -11 10 -2 0
-4 -4 -4 -10z"/>
<path d="M4295 3380 c3 -5 8 -10 11 -10 2 0 4 5 4 10 0 6 -5 10 -11 10 -5 0
-7 -4 -4 -10z"/>
<path d="M2615 3370 c-4 -6 -11 -8 -16 -5 -5 4 -9 1 -9 -4 0 -14 27 -14 35 -1
4 6 11 7 17 4 7 -4 8 -2 4 4 -9 15 -23 15 -31 2z"/>
<path d="M4167 3359 c7 -7 15 -10 18 -7 3 3 -2 9 -12 12 -14 6 -15 5 -6 -5z"/>
<path d="M4207 3356 c-3 -8 1 -20 9 -26 10 -9 14 -9 14 -1 0 6 -4 11 -10 11
-5 0 -7 7 -4 15 4 8 4 15 1 15 -3 0 -7 -6 -10 -14z"/>
<path d="M3930 3345 c7 -8 17 -15 22 -15 5 0 3 7 -6 15 -8 8 -18 15 -22 15 -3
0 -1 -7 6 -15z"/>
<path d="M4022 3346 c7 -8 15 -12 17 -11 5 6 -10 25 -20 25 -5 0 -4 -6 3 -14z"/>
<path d="M4306 3348 c3 -4 9 -8 15 -8 5 0 9 4 9 8 0 5 -7 9 -15 9 -8 0 -12 -4
-9 -9z"/>
<path d="M4454 3348 c-4 -5 -3 -12 0 -15 7 -8 36 4 36 15 0 11 -29 11 -36 0z"/>
<path d="M4695 3350 c-3 -5 -1 -10 4 -10 6 0 11 5 11 10 0 6 -2 10 -4 10 -3 0
-8 -4 -11 -10z"/>
<path d="M2473 3315 c0 -8 4 -12 9 -9 4 3 8 9 8 15 0 5 -4 9 -8 9 -5 0 -9 -7
-9 -15z"/>
<path d="M3986 3305 c4 -8 -1 -34 -11 -57 l-17 -43 26 28 c30 33 40 34 33 6
-4 -14 -2 -18 4 -12 11 11 0 75 -12 67 -5 -3 -9 2 -9 10 0 9 -4 16 -10 16 -5
0 -7 -7 -4 -15z"/>
<path d="M4052 3306 c-21 -11 -22 -14 -8 -25 9 -8 16 -10 16 -5 0 5 5 2 10 -6
8 -12 10 -11 10 7 0 12 8 27 18 32 16 10 15 10 -3 10 -11 0 -30 -5 -43 -13z"/>
<path d="M4375 3309 c-4 -6 -5 -12 -2 -15 2 -3 7 2 10 11 7 17 1 20 -8 4z"/>
<path d="M4451 3294 c0 -11 3 -14 6 -6 3 7 2 16 -1 19 -3 4 -6 -2 -5 -13z"/>
<path d="M2400 3270 c-6 -11 -17 -20 -25 -20 -8 0 -15 -4 -15 -10 0 -15 16
-12 34 6 9 8 20 12 26 9 5 -3 10 -1 10 4 0 6 -5 11 -11 11 -5 0 -7 5 -4 10 3
6 4 10 1 10 -3 0 -10 -9 -16 -20z"/>
<path d="M2527 3279 c7 -7 15 -10 18 -7 3 3 -2 9 -12 12 -14 6 -15 5 -6 -5z"/>
<path d="M4170 3281 c0 -6 4 -12 8 -15 5 -3 9 1 9 9 0 8 -4 15 -9 15 -4 0 -8
-4 -8 -9z"/>
<path d="M4125 3250 c3 -5 8 -10 11 -10 2 0 4 5 4 10 0 6 -5 10 -11 10 -5 0
-7 -4 -4 -10z"/>
<path d="M2470 3245 c0 -18 19 -40 26 -32 4 4 0 15 -9 24 -9 10 -17 13 -17 8z"/>
<path d="M4085 3210 c3 -5 8 -10 11 -10 2 0 4 5 4 10 0 6 -5 10 -11 10 -5 0
-7 -4 -4 -10z"/>
<path d="M4190 3216 c0 -2 7 -6 15 -10 8 -3 15 -1 15 4 0 6 -7 10 -15 10 -8 0
-15 -2 -15 -4z"/>
<path d="M2390 3202 c0 -4 9 -8 20 -9 11 -1 20 2 20 8 0 5 -9 9 -20 9 -11 0
-20 -4 -20 -8z"/>
<path d="M2460 3201 c0 -10 19 -25 25 -20 1 2 -3 10 -11 17 -8 7 -14 8 -14 3z"/>
<path d="M4020 3190 c0 -5 5 -10 10 -10 6 0 10 5 10 10 0 6 -4 10 -10 10 -5 0
-10 -4 -10 -10z"/>
<path d="M2465 3162 c-15 -11 -16 -29 -2 -35 7 -3 12 5 12 19 0 13 0 24 0 24
0 0 -4 -4 -10 -8z"/>
<path d="M2300 3139 c0 -5 5 -7 10 -4 6 3 10 8 10 11 0 2 -4 4 -10 4 -5 0 -10
-5 -10 -11z"/>
<path d="M4040 3129 c0 -5 -4 -7 -10 -4 -5 3 -10 1 -10 -4 0 -6 7 -11 15 -11
8 0 15 7 15 15 0 8 -2 15 -5 15 -3 0 -5 -5 -5 -11z"/>
<path d="M2490 3098 c0 -11 38 -10 44 1 3 5 -5 8 -19 7 -14 0 -25 -4 -25 -8z"/>
<path d="M4030 3090 c-9 -6 -10 -10 -3 -10 6 0 15 5 18 10 8 12 4 12 -15 0z"/>
<path d="M1410 3060 c0 -5 5 -10 10 -10 6 0 10 5 10 10 0 6 -4 10 -10 10 -5 0
-10 -4 -10 -10z"/>
<path d="M2060 3049 c0 -5 5 -7 10 -4 6 3 10 8 10 11 0 2 -4 4 -10 4 -5 0 -10
-5 -10 -11z"/>
<path d="M2560 3034 c0 -8 5 -12 10 -9 6 4 8 11 5 16 -9 14 -15 11 -15 -7z"/>
<path d="M3980 2995 c0 -8 2 -15 4 -15 2 0 6 7 10 15 3 8 1 15 -4 15 -6 0 -10
-7 -10 -15z"/>
<path d="M2566 2977 c3 -10 9 -15 12 -12 3 3 0 11 -7 18 -10 9 -11 8 -5 -6z"/>
<path d="M2534 2955 c4 -24 16 -30 16 -7 0 12 -4 22 -9 22 -5 0 -8 -7 -7 -15z"/>
<path d="M2375 2940 c3 -5 8 -10 11 -10 2 0 4 5 4 10 0 6 -5 10 -11 10 -5 0
-7 -4 -4 -10z"/>
<path d="M5890 2920 c0 -5 5 -10 10 -10 6 0 10 5 10 10 0 6 -4 10 -10 10 -5 0
-10 -4 -10 -10z"/>
<path d="M4060 2905 c0 -8 5 -15 10 -15 6 0 10 7 10 15 0 8 -4 15 -10 15 -5 0
-10 -7 -10 -15z"/>
<path d="M2350 2785 c0 -8 7 -15 15 -15 9 0 12 6 9 15 -4 8 -10 15 -15 15 -5
0 -9 -7 -9 -15z"/>
<path d="M2520 2776 c0 -2 7 -9 15 -16 9 -7 15 -8 15 -2 0 5 -7 12 -15 16 -8
3 -15 4 -15 2z"/>
<path d="M2317 2756 c-4 -10 -1 -13 9 -9 15 6 19 23 5 23 -5 0 -11 -7 -14 -14z"/>
<path d="M3540 2740 c0 -5 5 -10 10 -10 6 0 10 5 10 10 0 6 -4 10 -10 10 -5 0
-10 -4 -10 -10z"/>
<path d="M3635 2719 c-5 -7 -4 -14 3 -17 7 -2 9 -9 6 -15 -5 -9 -4 -9 6 0 8 7
9 16 2 28 -7 14 -11 15 -17 4z"/>
<path d="M3970 2704 c0 -8 5 -12 10 -9 6 4 8 11 5 16 -9 14 -15 11 -15 -7z"/>
<path d="M4175 2710 c-3 -6 1 -13 10 -16 19 -8 30 0 20 15 -8 14 -22 14 -30 1z"/>
<path d="M3528 2684 c3 -19 1 -25 -6 -20 -8 5 -10 1 -5 -10 4 -10 8 -13 10 -7
3 7 13 6 34 -4 16 -8 35 -12 42 -10 7 3 5 6 -6 6 -14 1 -16 7 -12 29 5 25 5
25 -4 5 -6 -13 -15 -23 -21 -23 -9 0 -12 6 -14 39 -1 8 -6 16 -12 18 -7 2 -10
-6 -6 -23z"/>
<path d="M3485 2671 c3 -5 -3 -11 -12 -13 -16 -3 -15 -5 2 -9 16 -5 21 -1 22
12 1 11 -3 19 -8 19 -6 0 -8 -4 -4 -9z"/>
<path d="M4086 2666 c3 -8 12 -12 20 -9 21 8 17 23 -6 23 -13 0 -18 -5 -14
-14z"/>
<path d="M2198 2635 c-10 -24 -12 -36 -4 -39 6 -2 1 -5 -11 -5 -17 -1 -21 3
-16 15 4 12 2 15 -8 12 -8 -3 -13 -12 -11 -21 2 -11 -2 -15 -11 -12 -13 6 -58
-65 -56 -88 0 -7 4 -3 9 8 7 17 9 17 9 3 1 -28 21 -21 21 6 0 40 11 56 36 56
13 0 24 -4 24 -9 0 -10 20 -18 59 -26 20 -4 20 -3 5 21 -9 13 -19 24 -23 24
-3 0 -6 20 -5 45 1 25 1 45 0 45 -1 0 -9 -16 -18 -35z"/>
<path d="M3720 2656 c0 -9 4 -15 9 -12 5 4 11 0 14 -6 2 -7 7 -10 11 -7 3 3
-3 14 -14 24 -18 17 -20 17 -20 1z"/>
<path d="M2166 2648 c3 -4 9 -8 15 -8 5 0 9 4 9 8 0 5 -7 9 -15 9 -8 0 -12 -4
-9 -9z"/>
<path d="M3998 2653 c7 -3 16 -2 19 1 4 3 -2 6 -13 5 -11 0 -14 -3 -6 -6z"/>
<path d="M2260 2624 c0 -14 3 -14 15 -4 8 7 15 14 15 16 0 2 -7 4 -15 4 -8 0
-15 -7 -15 -16z"/>
<path d="M3363 2625 c-3 -9 -3 -18 -1 -21 3 -3 8 4 11 16 6 23 -1 27 -10 5z"/>
<path d="M3460 2629 c0 -5 5 -7 10 -4 6 3 10 8 10 11 0 2 -4 4 -10 4 -5 0 -10
-5 -10 -11z"/>
<path d="M2230 2622 c0 -5 7 -17 16 -28 14 -17 15 -17 10 -1 -3 10 -6 23 -6
28 0 5 -4 9 -10 9 -5 0 -10 -4 -10 -8z"/>
<path d="M3636 2617 c3 -10 9 -15 12 -12 3 3 0 11 -7 18 -10 9 -11 8 -5 -6z"/>
<path d="M4065 2620 c3 -5 14 -10 23 -10 15 0 15 2 2 10 -20 13 -33 13 -25 0z"/>
<path d="M3016 2611 c-3 -4 3 -16 14 -26 14 -12 20 -14 20 -5 0 7 8 10 19 7
13 -3 18 0 16 12 -2 9 -4 18 -4 21 -1 3 -5 -1 -10 -9 -6 -10 -13 -11 -29 -2
-11 6 -23 7 -26 2z"/>
<path d="M3834 2605 c-5 -13 -9 -13 -22 -3 -13 11 -15 10 -9 -4 4 -11 2 -18
-5 -18 -6 0 -9 -3 -5 -6 7 -7 67 27 67 38 0 14 -20 8 -26 -7z"/>
<path d="M2280 2595 c-7 -9 -8 -15 -2 -15 5 0 12 7 16 15 3 8 4 15 2 15 -2 0
-9 -7 -16 -15z"/>
<path d="M3611 2593 c6 -7 15 -13 20 -13 5 0 6 6 3 13 -3 8 -11 14 -19 14 -11
0 -12 -4 -4 -14z"/>
<path d="M3952 2584 c10 -10 20 -15 24 -12 3 4 -5 12 -18 18 -22 12 -22 12 -6
-6z"/>
<path d="M3010 2581 c0 -6 -3 -10 -7 -8 -5 1 -8 -2 -8 -8 0 -5 3 -9 7 -8 4 2
5 -4 2 -12 -4 -8 -11 -12 -18 -8 -12 8 -36 13 -36 8 0 -2 3 -11 6 -20 5 -13 8
-14 15 -3 6 10 11 10 21 0 18 -18 31 -15 25 7 -2 10 0 25 4 34 6 10 5 18 -1
22 -5 3 -10 1 -10 -4z"/>
<path d="M3380 2580 c19 -13 30 -13 30 0 0 6 -10 10 -22 10 -19 0 -20 -2 -8
-10z"/>
<path d="M3560 2580 c-13 -8 -12 -10 3 -10 9 0 17 5 17 10 0 12 -1 12 -20 0z"/>
<path d="M3876 2581 c-3 -5 1 -14 9 -21 13 -10 15 -9 15 9 0 21 -14 28 -24 12z"/>
<path d="M2527 2573 c-9 -2 -14 -9 -11 -14 3 -6 -2 -16 -12 -24 -11 -7 -16
-17 -11 -21 4 -4 7 -2 7 5 0 7 5 9 10 6 6 -3 13 1 16 9 3 9 12 16 20 16 10 0
9 -8 -6 -35 -20 -36 -13 -53 18 -39 9 4 20 8 24 8 15 2 20 16 6 16 -9 0 -19 7
-22 16 -9 22 -8 24 12 25 11 0 8 5 -11 13 -15 7 -24 15 -21 19 4 4 5 6 3 6 -2
-1 -12 -3 -22 -6z"/>
<path d="M4155 2570 c3 -5 8 -10 11 -10 2 0 4 5 4 10 0 6 -5 10 -11 10 -5 0
-7 -4 -4 -10z"/>
<path d="M3600 2560 c-9 -6 -10 -10 -3 -10 6 0 15 5 18 10 8 12 4 12 -15 0z"/>
<path d="M3656 2561 c-4 -7 -5 -15 -2 -18 9 -9 19 4 14 18 -4 11 -6 11 -12 0z"/>
<path d="M4093 2556 c-10 -11 -9 -15 2 -20 10 -4 15 1 15 14 0 23 -1 24 -17 6z"/>
<path d="M3365 2547 c-6 -15 -10 -16 -17 -5 -8 10 -9 9 -4 -4 3 -10 -1 -24 -9
-32 -8 -7 -17 -25 -20 -38 -6 -23 -4 -25 24 -24 18 1 31 6 31 14 0 8 -5 10
-12 6 -7 -4 -3 3 10 15 23 23 29 41 12 41 -5 0 -10 -5 -10 -12 0 -6 -3 -8 -6
-5 -4 4 -1 13 6 21 6 9 10 21 7 28 -3 9 -7 7 -12 -5z"/>
<path d="M3745 2550 c3 -5 8 -10 11 -10 2 0 4 5 4 10 0 6 -5 10 -11 10 -5 0
-7 -4 -4 -10z"/>
<path d="M3815 2550 c-3 -5 -1 -10 4 -10 6 0 11 5 11 10 0 6 -2 10 -4 10 -3 0
-8 -4 -11 -10z"/>
<path d="M2044 2543 c3 -6 0 -13 -6 -16 -7 -2 -11 -7 -8 -10 3 -3 12 -2 20 3
13 8 13 11 1 22 -8 8 -11 8 -7 1z"/>
<path d="M3625 2540 c3 -5 8 -10 11 -10 2 0 4 5 4 10 0 6 -5 10 -11 10 -5 0
-7 -4 -4 -10z"/>
<path d="M3920 2540 c-9 -6 -10 -10 -3 -10 6 0 15 5 18 10 8 12 4 12 -15 0z"/>
<path d="M2340 2530 c0 -5 5 -10 10 -10 6 0 10 5 10 10 0 6 -4 10 -10 10 -5 0
-10 -4 -10 -10z"/>
<path d="M3450 2521 c0 -14 4 -20 12 -15 7 5 8 3 3 -6 -5 -9 -4 -11 4 -6 9 6
9 12 -1 24 -7 10 -14 19 -15 21 -2 2 -3 -6 -3 -18z"/>
<path d="M3470 2530 c0 -5 5 -10 10 -10 6 0 10 5 10 10 0 6 -4 10 -10 10 -5 0
-10 -4 -10 -10z"/>
<path d="M3579 2522 c-11 -14 -11 -15 0 -5 7 6 20 9 27 6 8 -3 14 -3 14 0 0
14 -30 14 -41 -1z"/>
<path d="M1920 2515 c-7 -9 -8 -15 -2 -15 5 0 12 7 16 15 3 8 4 15 2 15 -2 0
-9 -7 -16 -15z"/>
<path d="M2647 2501 c4 -16 8 -17 18 -8 9 9 10 14 1 19 -19 13 -24 9 -19 -11z"/>
<path d="M2715 2510 c-3 -5 -1 -10 4 -10 6 0 11 5 11 10 0 6 -2 10 -4 10 -3 0
-8 -4 -11 -10z"/>
<path d="M4000 2510 c-8 -5 -10 -10 -5 -10 6 0 17 5 25 10 8 5 11 10 5 10 -5
0 -17 -5 -25 -10z"/>
<path d="M2987 2495 c3 -9 11 -14 17 -12 6 2 16 -3 23 -12 10 -14 11 -13 6 7
-3 14 -11 21 -19 18 -8 -3 -14 -1 -14 4 0 6 -4 10 -10 10 -5 0 -7 -7 -3 -15z"/>
<path d="M3491 2496 c-14 -8 -31 -12 -38 -9 -7 3 -20 0 -28 -7 -11 -9 -15 -9
-15 -1 0 8 -4 8 -14 -1 -8 -7 -10 -14 -5 -16 12 -5 11 -39 -1 -45 -6 -3 -5 -4
2 -3 7 1 14 12 16 24 4 25 37 48 47 32 3 -5 1 -10 -5 -10 -7 0 -6 -5 2 -14 7
-8 17 -11 23 -8 5 3 3 8 -4 10 -8 3 0 15 21 33 36 31 36 35 -1 15z"/>
<path d="M2017 2479 c4 -15 2 -18 -12 -12 -13 4 -16 3 -11 -6 5 -7 17 -11 27
-8 11 3 17 1 14 -3 -7 -11 5 -40 16 -40 5 0 6 12 2 28 -3 15 -6 34 -6 42 1 9
-7 16 -17 17 -13 1 -16 -4 -13 -18z"/>
<path d="M2955 2489 c-4 -6 -5 -12 -2 -15 2 -3 7 2 10 11 7 17 1 20 -8 4z"/>
<path d="M3570 2490 c0 -5 5 -10 11 -10 5 0 7 5 4 10 -3 6 -8 10 -11 10 -2 0
-4 -4 -4 -10z"/>
<path d="M3650 2490 c0 -5 5 -10 11 -10 5 0 7 5 4 10 -3 6 -8 10 -11 10 -2 0
-4 -4 -4 -10z"/>
<path d="M4024 2460 c0 -13 4 -16 10 -10 7 7 7 13 0 20 -6 6 -10 3 -10 -10z"/>
<path d="M1958 2445 c-5 -22 -2 -26 13 -22 19 5 23 -3 20 -33 -2 -13 -1 -13 8
0 16 23 13 50 -6 57 -10 4 -21 11 -24 16 -4 5 -9 -3 -11 -18z"/>
<path d="M2090 2461 c0 -6 4 -13 10 -16 6 -3 7 1 4 9 -7 18 -14 21 -14 7z"/>
<path d="M2580 2460 c0 -6 7 -10 15 -10 8 0 15 2 15 4 0 2 -7 6 -15 10 -8 3
-15 1 -15 -4z"/>
<path d="M3050 2459 c0 -5 5 -7 10 -4 6 3 10 8 10 11 0 2 -4 4 -10 4 -5 0 -10
-5 -10 -11z"/>
<path d="M3500 2459 c0 -5 4 -8 9 -5 4 3 19 -3 31 -14 13 -11 26 -20 29 -20
10 1 -49 50 -60 50 -5 0 -9 -5 -9 -11z"/>
<path d="M2130 2450 c0 -5 5 -10 10 -10 6 0 10 5 10 10 0 6 -4 10 -10 10 -5 0
-10 -4 -10 -10z"/>
<path d="M2630 2449 c0 -5 5 -7 10 -4 6 3 10 8 10 11 0 2 -4 4 -10 4 -5 0 -10
-5 -10 -11z"/>
<path d="M1915 2440 c-3 -5 -1 -10 4 -10 6 0 11 5 11 10 0 6 -2 10 -4 10 -3 0
-8 -4 -11 -10z"/>
<path d="M2515 2440 c-3 -6 1 -7 9 -4 18 7 21 14 7 14 -6 0 -13 -4 -16 -10z"/>
<path d="M3513 2422 c10 -10 14 -22 10 -25 -3 -4 1 -7 9 -7 14 0 14 4 5 25 -7
14 -18 25 -26 25 -11 0 -11 -4 2 -18z"/>
<path d="M1860 2420 c0 -6 7 -10 15 -10 8 0 15 2 15 4 0 2 -7 6 -15 10 -8 3
-15 1 -15 -4z"/>
<path d="M3750 2420 c0 -4 9 -10 21 -13 12 -3 19 -1 17 5 -5 13 -38 20 -38 8z"/>
<path d="M3456 2404 c-11 -8 -13 -14 -7 -19 6 -3 14 1 17 10 5 13 9 12 25 -6
23 -26 25 -43 4 -35 -8 3 -15 1 -15 -4 0 -6 -5 -10 -11 -10 -6 0 -8 7 -5 17 4
10 4 14 0 10 -4 -4 -12 -3 -18 2 -8 6 -11 0 -12 -20 -1 -18 3 -26 10 -21 6 3
16 7 21 7 28 2 75 18 75 26 0 5 -5 9 -10 9 -6 0 -14 11 -19 23 -10 26 -30 30
-55 11z"/>
<path d="M1921 2393 c-10 -11 -11 -19 -2 -36 l12 -22 -5 23 c-2 13 2 25 11 31
9 4 12 11 7 14 -5 3 -15 -2 -23 -10z"/>
<path d="M2470 2399 c0 -5 5 -7 10 -4 6 3 10 8 10 11 0 2 -4 4 -10 4 -5 0 -10
-5 -10 -11z"/>
<path d="M2965 2401 c-3 -5 -2 -12 3 -15 5 -3 9 1 9 9 0 17 -3 19 -12 6z"/>
<path d="M4001 2394 c0 -11 3 -14 6 -6 3 7 2 16 -1 19 -3 4 -6 -2 -5 -13z"/>
<path d="M3215 2390 c-3 -5 -1 -10 4 -10 6 0 11 5 11 10 0 6 -2 10 -4 10 -3 0
-8 -4 -11 -10z"/>
<path d="M3295 2375 c0 -13 3 -21 8 -18 4 2 7 10 7 18 0 8 -3 16 -7 18 -5 3
-8 -5 -8 -18z"/>
<path d="M3398 2393 c7 -3 16 -2 19 1 4 3 -2 6 -13 5 -11 0 -14 -3 -6 -6z"/>
<path d="M4106 2374 c-4 -15 -5 -29 -1 -32 3 -3 5 2 5 11 0 8 7 23 16 31 13
14 13 16 1 16 -8 0 -18 -12 -21 -26z"/>
<path d="M2696 2373 c-6 -14 -5 -15 5 -6 7 7 10 15 7 18 -3 3 -9 -2 -12 -12z"/>
<path d="M3055 2380 c3 -5 10 -10 16 -10 5 0 9 5 9 10 0 6 -7 10 -16 10 -8 0
-12 -4 -9 -10z"/>
<path d="M3115 2380 c-3 -5 -2 -10 4 -10 5 0 13 5 16 10 3 6 2 10 -4 10 -5 0
-13 -4 -16 -10z"/>
<path d="M3360 2381 c0 -6 5 -13 10 -16 6 -3 10 1 10 9 0 9 -4 16 -10 16 -5 0
-10 -4 -10 -9z"/>
<path d="M1780 2330 c0 -5 5 -10 11 -10 5 0 7 5 4 10 -3 6 -8 10 -11 10 -2 0
-4 -4 -4 -10z"/>
<path d="M3167 2326 c-16 -12 -16 -14 -2 -20 9 -3 13 -2 10 3 -3 5 -1 12 5 16
5 3 10 1 10 -5 0 -6 5 -8 10 -5 11 7 4 25 -8 25 -4 0 -15 -7 -25 -14z"/>
<path d="M3305 2330 c-3 -5 1 -10 9 -10 9 0 16 -4 16 -10 0 -5 -4 -10 -10 -10
-5 0 -7 -7 -4 -15 4 -8 10 -15 14 -15 14 0 17 36 5 53 -14 19 -21 21 -30 7z"/>
<path d="M1860 2320 c0 -5 5 -10 10 -10 6 0 10 5 10 10 0 6 -4 10 -10 10 -5 0
-10 -4 -10 -10z"/>
<path d="M2550 2320 c0 -5 5 -10 11 -10 5 0 7 5 4 10 -3 6 -8 10 -11 10 -2 0
-4 -4 -4 -10z"/>
<path d="M3515 2320 c4 -6 11 -8 16 -5 14 9 11 15 -7 15 -8 0 -12 -5 -9 -10z"/>
<path d="M3030 2306 c0 -2 8 -10 18 -17 15 -13 16 -12 3 4 -13 16 -21 21 -21
13z"/>
<path d="M3260 2300 c0 -5 5 -10 11 -10 5 0 7 5 4 10 -3 6 -8 10 -11 10 -2 0
-4 -4 -4 -10z"/>
<path d="M3378 2293 c7 -3 16 -2 19 1 4 3 -2 6 -13 5 -11 0 -14 -3 -6 -6z"/>
<path d="M3105 2280 c3 -5 8 -10 11 -10 2 0 4 5 4 10 0 6 -5 10 -11 10 -5 0
-7 -4 -4 -10z"/>
<path d="M3575 2280 c-3 -5 -1 -10 4 -10 6 0 11 5 11 10 0 6 -2 10 -4 10 -3 0
-8 -4 -11 -10z"/>
<path d="M3236 2272 c5 -4 12 -11 15 -15 3 -5 9 -2 12 5 3 9 -3 14 -15 15 -11
1 -16 -1 -12 -5z"/>
<path d="M3281 2261 c-8 -6 -9 -11 -3 -15 6 -3 14 -1 17 5 9 14 2 20 -14 10z"/>
<path d="M3510 2260 c0 -5 5 -10 11 -10 5 0 7 5 4 10 -3 6 -8 10 -11 10 -2 0
-4 -4 -4 -10z"/>
<path d="M3140 2230 c-7 -14 -7 -20 0 -20 5 0 10 6 10 14 0 8 6 17 13 19 9 4
9 6 0 6 -7 1 -17 -8 -23 -19z"/>
<path d="M3314 2210 c0 -10 4 -16 8 -14 4 3 8 -3 8 -12 0 -13 3 -15 11 -7 8 8
6 17 -8 32 -18 19 -19 19 -19 1z"/>
<path d="M1777 2214 c-4 -4 -4 -10 -1 -15 6 -10 34 0 34 12 0 10 -24 12 -33 3z"/>
<path d="M3050 2151 c0 -6 5 -13 10 -16 6 -3 10 1 10 9 0 9 -4 16 -10 16 -5 0
-10 -4 -10 -9z"/>
<path d="M3240 2150 c-12 -7 -10 -9 7 -7 12 0 19 5 17 9 -6 10 -6 10 -24 -2z"/>
<path d="M2940 2110 c0 -5 5 -10 11 -10 5 0 7 5 4 10 -3 6 -8 10 -11 10 -2 0
-4 -4 -4 -10z"/>
<path d="M1715 2090 c-3 -5 -1 -10 4 -10 6 0 11 5 11 10 0 6 -2 10 -4 10 -3 0
-8 -4 -11 -10z"/>
<path d="M3600 2080 c0 -5 5 -10 11 -10 5 0 7 5 4 10 -3 6 -8 10 -11 10 -2 0
-4 -4 -4 -10z"/>
<path d="M1600 2049 c7 -11 14 -18 17 -15 8 8 -5 36 -17 36 -7 0 -7 -6 0 -21z"/>
<path d="M1485 2050 c3 -5 8 -10 11 -10 2 0 4 5 4 10 0 6 -5 10 -11 10 -5 0
-7 -4 -4 -10z"/>
<path d="M3580 2050 c0 -5 5 -10 10 -10 6 0 10 5 10 10 0 6 -4 10 -10 10 -5 0
-10 -4 -10 -10z"/>
<path d="M2940 2039 c0 -5 5 -7 10 -4 6 3 10 8 10 11 0 2 -4 4 -10 4 -5 0 -10
-5 -10 -11z"/>
<path d="M3330 2025 c-7 -9 -8 -15 -2 -15 5 0 12 7 16 15 3 8 4 15 2 15 -2 0
-9 -7 -16 -15z"/>
<path d="M1547 1986 c-4 -10 -5 -21 -2 -24 9 -9 17 6 13 25 -3 17 -4 17 -11
-1z"/>
<path d="M3600 1980 c0 -5 5 -10 10 -10 6 0 10 5 10 10 0 6 -4 10 -10 10 -5 0
-10 -4 -10 -10z"/>
<path d="M3485 1920 c3 -5 8 -10 11 -10 2 0 4 5 4 10 0 6 -5 10 -11 10 -5 0
-7 -4 -4 -10z"/>
<path d="M4254 1839 c-8 -14 18 -31 30 -19 9 9 0 30 -14 30 -5 0 -12 -5 -16
-11z"/>
<path d="M4360 969 c0 -5 5 -7 10 -4 6 3 10 8 10 11 0 2 -4 4 -10 4 -5 0 -10
-5 -10 -11z"/>
</g>
</svg>
